<?xml version="1.0" encoding="utf-8"?>
<svg enable-background="new 0 0 100 100" id="app-s" version="1.1" viewBox="0 0 100 100" x="0px" xml:space="preserve" xmlns="http://www.w3.org/2000/svg" xmlns:xlink="http://www.w3.org/1999/xlink" y="0px">
  <circle cx="50.2" cy="88.9" r="3.3"/>
  <path d="M69.8,0H30.3c-6.4,0-11.4,5-11.4,11.4v77.2c0,6.4,5,11.4,11.4,11.4h39.5c3,0,6.1-1.4,8-3.3c2.3-2.3,3.3-5,3.3-8V11.6   C81.2,5,76.2,0,69.8,0z M23,11.2c0-4.1,3.3-7.3,7.3-7.3h39.5c4.1,0,7.3,3.3,7.3,7.3v66H23V11.2z M77.4,88.6h-0.2   c0,2-0.6,4.1-2.3,5.3c-1.4,1.4-3.3,2-5.3,2H30.5c-4.1,0-7.3-3.3-7.3-7.3v-7.3h54.2V88.6z"/>
</svg>
