<?xml version="1.0" encoding="utf-8"?>
<svg enable-background="new 0 0 100 100" id="email-s" version="1.1" viewBox="0 0 100 100" x="0px" xml:space="preserve" xmlns="http://www.w3.org/2000/svg" xmlns:xlink="http://www.w3.org/1999/xlink" y="0px">
  <path d="M67.1,7c-4.7-4.4-10.6-7-17-7c-6.4,0-12.3,2.7-17,7L3.7,36.4V100h92.7V36.4L67.1,7z M35.7,9.7c4.1-4.1,9.1-5.9,14.4-5.9  c5.3,0,10.6,2,14.4,5.9L91.8,37l-8.3,7.3h-67L8.2,37L35.7,9.7z M79.8,48L63.4,63c-8.3-5-18.3-5-26.4,0L20.5,48H79.8z M7.6,41.5  l26.6,23.9c-0.3,0.3-0.6,0.6-0.9,0.9l-25.6,27V41.5z M10.1,96.4l25.6-27.3c8-8,20.9-8,28.6,0l25.6,27.3H10.1z M92.9,93.3h-0.2  l-25.6-27c-0.3-0.3-0.6-0.6-0.9-0.9l26.7-24.4V93.3z"/>
</svg>
