<?xml version="1.0" encoding="utf-8"?>
<svg enable-background="new 0 0 100 100" id="user-s" version="1.1" viewBox="0 0 100 100" x="0px" xml:space="preserve" xmlns="http://www.w3.org/2000/svg" xmlns:xlink="http://www.w3.org/1999/xlink" y="0px">
  <path d="M63.4,58c10-5,17-15.3,17-27.3C80.7,13.6,66.8,0,50.1,0C33.4,0,19.5,13.6,19.5,30.6c0,12,7,22.3,17,27.3  c-19.7,4.4-33,19.7-33,40v2h93v-2.3C96.5,77.7,83,62.3,63.4,58z M24.1,30.6c0-14.4,11.7-25.9,25.9-25.9C64.3,4.7,76,16.4,76,30.6  S64.3,56.6,50.1,56.6C35.9,56.6,24.1,45,24.1,30.6z M8,95.6c0.9-20,17.7-34.7,40.3-34.7H52c22.7,0,39.1,14.4,40.3,34.7H8z"/>
</svg>
