<svg version="1.1" class=" oi-logo" xmlns="http://www.w3.org/2000/svg" xmlns:xlink="http://www.w3.org/1999/xlink" viewBox="0 0 30 30" xml:space="preserve" aria-labelledby="logo-oi-title" role="img">
  <title id="logo-oi-title">Logo Oi</title>
  <desc></desc>
  <g>
    <path fill="#F7A800" d="M22.8,25.3C16,31.3-2.2,31.4,1.5,26.3c4.3-6-2.1-13.6,3.3-21C10-1.9,21.1-1.3,26,4.2 C31,9.7,29.5,19.2,22.8,25.3z"/>
  </g>
  <g>
    <g>
      <ellipse fill="#FFFFFF" cx="20" cy="21" rx="1.5" ry="4.5"/>
    </g>
    <g>
      <circle fill="#FFFFFF" cx="20" cy="13.8" r="1.5"/>
    </g>
    <g>
      <path fill="#FFFFFF" d="M13.1,16.4c-2.5,0-4.2,2-4.2,4.5c0,2.5,1.7,4.5,4.2,4.5c2.5,0,4.2-2,4.2-4.5C17.3,18.4,15.6,16.4,13.1,16.4 M13.1,23.4c-1.2,0-1.8-1.2-1.8-2.4c0-1.2,0.6-2.4,1.8-2.4c1.2,0,1.8,1.2,1.8,2.4C14.9,22.2,14.2,23.4,13.1,23.4z"/>
    </g>
  </g>
</svg>
