<?xml version="1.0" encoding="utf-8"?>
<!-- Generator: Adobe Illustrator 18.1.1, SVG Export Plug-In . SVG Version: 6.00 Build 0)  -->
<!DOCTYPE svg PUBLIC "-//W3C//DTD SVG 1.1//EN" "http://www.w3.org/Graphics/SVG/1.1/DTD/svg11.dtd">
<svg version="1.1" id="Layer_1" xmlns="http://www.w3.org/2000/svg" xmlns:xlink="http://www.w3.org/1999/xlink" x="0px" y="0px"
	 viewBox="0 0 30 30" enable-background="new 0 0 30 30" xml:space="preserve">
<g>
	<circle fill="#00A696" cx="15" cy="26.6" r="1"/>
	<path fill="#00A696" d="M20.9,0H9.1C7.2,0,5.7,1.5,5.7,3.4v23.1c0,1.9,1.5,3.4,3.4,3.4h11.8c0.9,0,1.8-0.4,2.4-1
		c0.7-0.7,1-1.5,1-2.4l0-23.1C24.3,1.5,22.8,0,20.9,0z M9.1,1.2h11.8c1.2,0,2.2,1,2.2,2.2l0,19.7H6.9V3.4C6.9,2.2,7.9,1.2,9.1,1.2z
		 M22.4,28.1c-0.4,0.4-1,0.6-1.6,0.6H9.1c-1.2,0-2.2-1-2.2-2.2v-2.2h16.2l0,2.2C23.1,27.1,22.9,27.7,22.4,28.1z"/>
</g>
</svg>
