<?xml version="1.0" encoding="utf-8"?>
<!-- Generator: Adobe Illustrator 18.1.1, SVG Export Plug-In . SVG Version: 6.00 Build 0)  -->
<!DOCTYPE svg PUBLIC "-//W3C//DTD SVG 1.1//EN" "http://www.w3.org/Graphics/SVG/1.1/DTD/svg11.dtd">
<svg version="1.1" id="Layer_1" xmlns="http://www.w3.org/2000/svg" xmlns:xlink="http://www.w3.org/1999/xlink" x="0px" y="0px"
	 viewBox="0 0 30 30" enable-background="new 0 0 30 30" xml:space="preserve">
<g>
	<g>
		<path fill="#222222" d="M15,26c-4.7,0-8.5-3.8-8.5-8.5S10.3,9,15,9s8.5,3.8,8.5,8.5S19.7,26,15,26z M15,10.2
			c-4.1,0-7.4,3.3-7.4,7.4s3.3,7.4,7.4,7.4s7.4-3.3,7.4-7.4S19.1,10.2,15,10.2z"/>
		<path fill="#222222" d="M15,26c-2.2,0-3.4-4.4-3.4-8.5S12.8,9,15,9s3.4,4.4,3.4,8.5S17.2,26,15,26z M15,10.2
			c-0.9,0-2.3,2.9-2.3,7.4c0,4.5,1.4,7.4,2.3,7.4s2.3-2.9,2.3-7.4C17.3,13,16,10.2,15,10.2z"/>
		<rect x="7.1" y="17" fill="#222222" width="15.9" height="1.1"/>
	</g>
	<g>
		<path fill="#222222" d="M17,1.9c-1.1-1.1-2.9-1.1-4,0l-0.8-0.8c1.5-1.5,4.1-1.5,5.6,0L17,1.9z"/>
		<polygon fill="#222222" points="29.2,30 0.8,30 0.8,12.5 12.2,1.1 13,1.9 2,12.9 2,28.9 28,28.9 28,12.9 17,1.9 17.8,1.1 
			29.2,12.5 		"/>
	</g>
</g>
</svg>
