<?xml version="1.0" encoding="utf-8"?>
<!-- Generator: Adobe Illustrator 18.1.1, SVG Export Plug-In . SVG Version: 6.00 Build 0)  -->
<!DOCTYPE svg PUBLIC "-//W3C//DTD SVG 1.1//EN" "http://www.w3.org/Graphics/SVG/1.1/DTD/svg11.dtd">
<svg version="1.1" id="Layer_1" xmlns="http://www.w3.org/2000/svg" xmlns:xlink="http://www.w3.org/1999/xlink" x="0px" y="0px"
	 viewBox="653 354 60 60" enable-background="new 653 354 60 60" xml:space="preserve">
<g>
	<g>
		<path fill="#222222" d="M683,406.1c-9.4,0-17-7.6-17-17c0-9.4,7.6-17,17-17s17,7.6,17,17C700,398.5,692.4,406.1,683,406.1z
			 M683,374.4c-8.2,0-14.7,6.6-14.7,14.7s6.6,14.7,14.7,14.7s14.7-6.6,14.7-14.7S691.2,374.4,683,374.4z"/>
		<path fill="#222222" d="M683,406.1c-4.4,0-6.8-8.7-6.8-17c0-8.3,2.4-17,6.8-17s6.8,8.7,6.8,17C689.8,397.4,687.4,406.1,683,406.1z
			 M683,374.4c-1.8,0-4.5,5.8-4.5,14.7c0,8.9,2.7,14.7,4.5,14.7c1.9,0,4.5-5.5,4.5-14.7C687.5,379.9,684.9,374.4,683,374.4z"/>
		<rect x="667.2" y="388" fill="#222222" width="31.7" height="2.3"/>
	</g>
	<g>
		<path fill="#222222" d="M687,358c-1-1.1-2.5-1.7-4-1.7s-2.9,0.6-4,1.7l-1.6-1.7c1.5-1.5,3.5-2.3,5.5-2.3c2.2,0,4.1,0.8,5.5,2.3
			L687,358z"/>
		<polygon fill="#222222" points="711.3,414 654.7,414 654.7,379 677.5,356.3 679,358 657,379.9 657,411.7 709,411.7 709,379.9 
			687,358 688.5,356.3 711.3,379 		"/>
	</g>
</g>
</svg>
