<?xml version="1.0" encoding="utf-8"?>
<!-- Generator: Adobe Illustrator 18.1.1, SVG Export Plug-In . SVG Version: 6.00 Build 0)  -->
<!DOCTYPE svg PUBLIC "-//W3C//DTD SVG 1.1//EN" "http://www.w3.org/Graphics/SVG/1.1/DTD/svg11.dtd">
<svg version="1.1" id="Layer_1" xmlns="http://www.w3.org/2000/svg" xmlns:xlink="http://www.w3.org/1999/xlink" x="0px" y="0px"
	 viewBox="0 0 30 30" enable-background="new 0 0 30 30" xml:space="preserve">
<g>
	<rect x="5.7" y="5.1" fill="#222222" width="18.6" height="1"/>
	<rect x="5.7" y="16.5" fill="#222222" width="18.6" height="1"/>
	<path fill="#222222" d="M18.1,30h-6.2c-3.7,0-6.7-3-6.7-6.7V6.7C5.2,3,8.2,0,11.9,0h6.2c3.7,0,6.7,3,6.7,6.7v16.6
		C24.8,27,21.8,30,18.1,30z M11.9,1C8.8,1,6.2,3.6,6.2,6.7v16.6c0,3.1,2.6,5.7,5.7,5.7h6.2c3.1,0,5.7-2.6,5.7-5.7V6.7
		c0-3.1-2.6-5.7-5.7-5.7H11.9z"/>
	<rect x="9.8" y="20.2" fill="#222222" width="2.1" height="2.1"/>
	<rect x="14" y="20.2" fill="#222222" width="2.1" height="2.1"/>
	<rect x="11.9" y="24.3" fill="#222222" width="2.1" height="2.1"/>
	<rect x="16" y="24.3" fill="#222222" width="2.1" height="2.1"/>
	<rect x="18.1" y="20.2" fill="#222222" width="2.1" height="2.1"/>
</g>
</svg>
