<?xml version="1.0" encoding="utf-8"?>
<!-- Generator: Adobe Illustrator 18.1.1, SVG Export Plug-In . SVG Version: 6.00 Build 0)  -->
<!DOCTYPE svg PUBLIC "-//W3C//DTD SVG 1.1//EN" "http://www.w3.org/Graphics/SVG/1.1/DTD/svg11.dtd">
<svg version="1.1" id="Layer_1" xmlns="http://www.w3.org/2000/svg" xmlns:xlink="http://www.w3.org/1999/xlink" x="0px" y="0px"
	 viewBox="653 354 60 60" enable-background="new 653 354 60 60" xml:space="preserve">
<g>
	<rect x="665.2" y="366.2" fill="#222222" width="35.6" height="2"/>
	<rect x="665.2" y="387.6" fill="#222222" width="35.6" height="2"/>
	<g>
		<circle fill="#222222" cx="679.9" cy="394.7" r="2"/>
		<circle fill="#222222" cx="679.9" cy="400.8" r="2"/>
	</g>
	<circle fill="#222222" cx="672.8" cy="394.7" r="2"/>
	<circle fill="#222222" cx="672.8" cy="400.8" r="2"/>
	<g>
		<circle fill="#222222" cx="687.1" cy="394.7" r="2"/>
		<circle fill="#222222" cx="687.1" cy="400.8" r="2"/>
	</g>
	<circle fill="#222222" cx="679.9" cy="406.9" r="2"/>
	<circle fill="#222222" cx="687.1" cy="406.9" r="2"/>
	<g>
		<circle fill="#222222" cx="694.2" cy="394.7" r="2"/>
		<circle fill="#222222" cx="694.2" cy="400.8" r="2"/>
	</g>
	<path fill="#222222" d="M688.6,414h-11.2c-7.3,0-13.2-5.9-13.2-13.2v-33.5c0-7.3,5.9-13.2,13.2-13.2h11.2c7.3,0,13.2,5.9,13.2,13.2
		v33.5C701.8,408.1,695.9,414,688.6,414z M677.4,356.1c-6.2,0-11.2,5-11.2,11.2v33.5c0,6.2,5,11.2,11.2,11.2h11.2
		c6.2,0,11.2-5,11.2-11.2v-33.5c0-6.2-5-11.2-11.2-11.2H677.4z"/>
</g>
</svg>
