<?xml version="1.0" encoding="utf-8"?>
<!-- Generator: Adobe Illustrator 18.1.1, SVG Export Plug-In . SVG Version: 6.00 Build 0)  -->
<!DOCTYPE svg PUBLIC "-//W3C//DTD SVG 1.1//EN" "http://www.w3.org/Graphics/SVG/1.1/DTD/svg11.dtd">
<svg version="1.1" id="Layer_1" xmlns="http://www.w3.org/2000/svg" xmlns:xlink="http://www.w3.org/1999/xlink" x="0px" y="0px"
	 viewBox="653 354 60 60" enable-background="new 653 354 60 60" xml:space="preserve">
<g>
	<circle fill="#222222" cx="698.5" cy="400.5" r="2.1"/>
	<circle fill="#222222" cx="684" cy="391.2" r="2.1"/>
	<circle fill="#222222" cx="676.8" cy="391.2" r="2.1"/>
	<circle fill="#222222" cx="684" cy="384" r="2.1"/>
	<circle fill="#222222" cx="676.8" cy="384" r="2.1"/>
	<path fill="#222222" d="M692.3,401.6h-23.8v-42.4h23.8V401.6z M670.6,399.5h19.6v-38.3h-19.6V399.5z"/>
	<path fill="#222222" d="M695.4,414h-24.8c-7.4,0-13.4-6-13.4-13.4s6-13.4,13.4-13.4v2.1c-6.3,0-11.4,5.1-11.4,11.4
		s5.1,11.4,11.4,11.4h24.8c6.3,0,11.4-5.1,11.4-11.4s-5.1-11.4-11.4-11.4h-4.1v-2.1h4.1c7.4,0,13.4,6,13.4,13.4S702.9,414,695.4,414
		z"/>
	<rect x="668.5" y="354" fill="#222222" width="2.1" height="7.2"/>
	<rect x="669.6" y="374.7" fill="#222222" width="21.7" height="2.1"/>
</g>
</svg>
