<?xml version="1.0" encoding="utf-8"?>
<!-- Generator: Adobe Illustrator 18.1.1, SVG Export Plug-In . SVG Version: 6.00 Build 0)  -->
<!DOCTYPE svg PUBLIC "-//W3C//DTD SVG 1.1//EN" "http://www.w3.org/Graphics/SVG/1.1/DTD/svg11.dtd">
<svg version="1.1" id="Layer_1" xmlns="http://www.w3.org/2000/svg" xmlns:xlink="http://www.w3.org/1999/xlink" x="0px" y="0px"
	 viewBox="0 0 30 30" enable-background="new 0 0 30 30" xml:space="preserve">
<g>
	<g>
		<path fill="#222222" d="M15.3,30h-0.6C6.6,30,0,23.4,0,15.3C0,7.2,6.6,0.6,14.7,0.6h0.6V30z M14.1,1.8C6.9,2.1,1.2,8,1.2,15.3
			c0,7.3,5.7,13.2,12.9,13.5V1.8z"/>
		<path fill="#222222" d="M14.7,30c-4.3,0-7.6-6.5-7.6-14.7c0-8.2,3.4-14.7,7.6-14.7v1.2c-3.5,0-6.5,6.2-6.5,13.5
			c0,7.3,3,13.5,6.5,13.5c3.5,0,6.5-6.2,6.5-13.5h1.2C22.4,23.5,19,30,14.7,30z"/>
		<path fill="#222222" d="M14.7,30v-1.2c7.3,0,13.2-5.7,13.5-12.9H0.6v-1.2h28.8v0.6C29.4,23.4,22.8,30,14.7,30z"/>
	</g>
	<rect x="17" y="0" fill="#222222" width="2.4" height="2.4"/>
	<rect x="21.7" y="2.4" fill="#222222" width="2.4" height="2.4"/>
	<rect x="25.3" y="5.9" fill="#222222" width="2.4" height="2.4"/>
	<rect x="27.6" y="10.6" fill="#222222" width="2.4" height="2.4"/>
</g>
</svg>
