<?xml version="1.0" encoding="utf-8"?>
<!-- Generator: Adobe Illustrator 18.1.1, SVG Export Plug-In . SVG Version: 6.00 Build 0)  -->
<!DOCTYPE svg PUBLIC "-//W3C//DTD SVG 1.1//EN" "http://www.w3.org/Graphics/SVG/1.1/DTD/svg11.dtd">
<svg version="1.1" id="Layer_1" xmlns="http://www.w3.org/2000/svg" xmlns:xlink="http://www.w3.org/1999/xlink" x="0px" y="0px"
	 viewBox="30 354 60 60" enable-background="new 30 354 60 60" xml:space="preserve">
<g>
	<path fill="#222222" d="M76,413H43.9c-7.7-0.1-13.8-6.3-13.8-13.9v-23.5c0-7.7,6.2-13.9,13.9-13.9H76c7.7,0,13.9,6.2,13.9,13.9
		v23.5C89.9,406.8,83.7,413,76,413z M44.1,410.8h32c6.5,0,11.8-5.2,11.8-11.8v-23.5c0-6.5-5.2-11.8-11.8-11.8H44
		c-6.5,0-11.8,5.2-11.8,11.8v23.5C32.2,405.6,37.6,410.8,44.1,410.8z"/>
	<rect x="32.2" y="400.1" fill="#222222" width="55.6" height="2.1"/>
	<circle fill="#222222" cx="75" cy="406.6" r="1.6"/>
	<rect x="52.5" y="401.2" fill="#222222" width="2.1" height="10.7"/>
	<rect x="42.9" y="401.2" fill="#222222" width="2.1" height="10.7"/>
	<g>
		
			<rect x="62.4" y="354.5" transform="matrix(-0.7071 -0.7071 0.7071 -0.7071 -145.523 657.8538)" fill="#222222" width="2.1" height="9.1"/>
		
			<rect x="52.5" y="357.9" transform="matrix(-0.7071 -0.7071 0.7071 -0.7071 -156.4167 653.2115)" fill="#222222" width="9.1" height="2.1"/>
	</g>
</g>
</svg>
