<?xml version="1.0" encoding="UTF-8" standalone="no"?>
<!-- Generator: Adobe Illustrator 18.1.1, SVG Export Plug-In . SVG Version: 6.00 Build 0)  -->

<svg
   xmlns:dc="http://purl.org/dc/elements/1.1/"
   xmlns:cc="http://creativecommons.org/ns#"
   xmlns:rdf="http://www.w3.org/1999/02/22-rdf-syntax-ns#"
   xmlns:svg="http://www.w3.org/2000/svg"
   xmlns="http://www.w3.org/2000/svg"
   xmlns:sodipodi="http://sodipodi.sourceforge.net/DTD/sodipodi-0.dtd"
   xmlns:inkscape="http://www.inkscape.org/namespaces/inkscape"
   version="1.1"
   id="Layer_1"
   x="0px"
   y="0px"
   viewBox="0 0 64 64"
   enable-background="new 0 0 30 30"
   xml:space="preserve"
   inkscape:version="0.91 r13725"
   sodipodi:docname="app-s.svg"
   width="64"
   height="64"><metadata
     id="metadata13"><rdf:RDF><cc:Work
         rdf:about=""><dc:format>image/svg+xml</dc:format><dc:type
           rdf:resource="http://purl.org/dc/dcmitype/StillImage" /><dc:title /></cc:Work></rdf:RDF></metadata><defs
     id="defs11" /><sodipodi:namedview
     pagecolor="#ffffff"
     bordercolor="#666666"
     borderopacity="1"
     objecttolerance="10"
     gridtolerance="10"
     guidetolerance="10"
     inkscape:pageopacity="0"
     inkscape:pageshadow="2"
     inkscape:window-width="2560"
     inkscape:window-height="1352"
     id="namedview9"
     showgrid="false"
     inkscape:zoom="7.8666667"
     inkscape:cx="-15.88983"
     inkscape:cy="19.322034"
     inkscape:window-x="0"
     inkscape:window-y="800"
     inkscape:window-maximized="1"
     inkscape:current-layer="Layer_1" /><g
     id="g3"
     transform="matrix(2.1404682,0,0,2.1404682,-0.107023,4.1e-7)"
     style="fill:#000000"><circle
       cx="15"
       cy="26.6"
       r="1"
       id="circle5"
       style="fill:#000000" /><path
       d="M 20.9,0 9.1,0 C 7.2,0 5.7,1.5 5.7,3.4 l 0,23.1 c 0,1.9 1.5,3.4 3.4,3.4 l 11.8,0 c 0.9,0 1.8,-0.4 2.4,-1 0.7,-0.7 1,-1.5 1,-2.4 l 0,-23.1 C 24.3,1.5 22.8,0 20.9,0 Z m -11.8,1.2 11.8,0 c 1.2,0 2.2,1 2.2,2.2 l 0,19.7 -16.2,0 0,-19.7 c 0,-1.2 1,-2.2 2.2,-2.2 z m 13.3,26.9 c -0.4,0.4 -1,0.6 -1.6,0.6 l -11.7,0 c -1.2,0 -2.2,-1 -2.2,-2.2 l 0,-2.2 16.2,0 0,2.2 c 0,0.6 -0.2,1.2 -0.7,1.6 z"
       id="path7"
       inkscape:connector-curvature="0"
       style="fill:#000000" /></g></svg>