<?xml version="1.0" encoding="UTF-8" standalone="no"?>
<!-- Generator: Adobe Illustrator 18.1.1, SVG Export Plug-In . SVG Version: 6.00 Build 0)  -->

<svg
   xmlns:dc="http://purl.org/dc/elements/1.1/"
   xmlns:cc="http://creativecommons.org/ns#"
   xmlns:rdf="http://www.w3.org/1999/02/22-rdf-syntax-ns#"
   xmlns:svg="http://www.w3.org/2000/svg"
   xmlns="http://www.w3.org/2000/svg"
   xmlns:sodipodi="http://sodipodi.sourceforge.net/DTD/sodipodi-0.dtd"
   xmlns:inkscape="http://www.inkscape.org/namespaces/inkscape"
   version="1.1"
   id="Layer_1"
   x="0px"
   y="0px"
   viewBox="0 0 64 64"
   enable-background="new 0 0 10 10"
   xml:space="preserve"
   inkscape:version="0.91 r13725"
   sodipodi:docname="arrow.svg"
   width="64"
   height="64"><metadata
     id="metadata9"><rdf:RDF><cc:Work
         rdf:about=""><dc:format>image/svg+xml</dc:format><dc:type
           rdf:resource="http://purl.org/dc/dcmitype/StillImage" /><dc:title /></cc:Work></rdf:RDF></metadata><defs
     id="defs7" /><sodipodi:namedview
     pagecolor="#ffffff"
     bordercolor="#666666"
     borderopacity="1"
     objecttolerance="10"
     gridtolerance="10"
     guidetolerance="10"
     inkscape:pageopacity="0"
     inkscape:pageshadow="2"
     inkscape:window-width="2560"
     inkscape:window-height="1352"
     id="namedview5"
     showgrid="false"
     inkscape:zoom="11.8"
     inkscape:cx="30.294256"
     inkscape:cy="36.477294"
     inkscape:window-x="0"
     inkscape:window-y="800"
     inkscape:window-maximized="1"
     inkscape:current-layer="Layer_1" /><path
     d="m 62.657873,15.658698 c -2.126546,-2.126546 -4.96194,-1.417697 -7.088486,0 L 32.177385,37.633003 8.7853817,16.367547 C 6.6588361,14.241001 3.8234418,13.532152 1.6968961,15.658698 c -2.12654569,1.417697 -2.12654569,4.96194 -0.70884852,7.088486 0,0 27.64509442,26.227396 27.64509442,26.227396 1.417697,0.708849 2.126546,0.708849 3.544243,0.708849 0,0 0,0 0,0 0,0 0,0 0,0 1.417697,0 2.126545,-0.708849 2.835394,-1.417697 0,0 27.645094,-26.227397 27.645094,-26.227397 2.126546,-2.126546 1.417697,-4.96194 0,-6.379637 z"
     id="path3"
     inkscape:connector-curvature="0"
     style="fill:#000000" /></svg>