<?xml version="1.0" encoding="UTF-8" standalone="no"?>
<!-- Generator: Adobe Illustrator 18.1.1, SVG Export Plug-In . SVG Version: 6.00 Build 0)  -->

<svg
   xmlns:dc="http://purl.org/dc/elements/1.1/"
   xmlns:cc="http://creativecommons.org/ns#"
   xmlns:rdf="http://www.w3.org/1999/02/22-rdf-syntax-ns#"
   xmlns:svg="http://www.w3.org/2000/svg"
   xmlns="http://www.w3.org/2000/svg"
   xmlns:sodipodi="http://sodipodi.sourceforge.net/DTD/sodipodi-0.dtd"
   xmlns:inkscape="http://www.inkscape.org/namespaces/inkscape"
   version="1.1"
   id="Layer_1"
   x="0px"
   y="0px"
   viewBox="653 354 64 64"
   enable-background="new 653 354 60 60"
   xml:space="preserve"
   inkscape:version="0.91 r13725"
   sodipodi:docname="banda.svg"
   width="64"
   height="64"><metadata
     id="metadata23"><rdf:RDF><cc:Work
         rdf:about=""><dc:format>image/svg+xml</dc:format><dc:type
           rdf:resource="http://purl.org/dc/dcmitype/StillImage" /><dc:title /></cc:Work></rdf:RDF></metadata><defs
     id="defs21" /><sodipodi:namedview
     pagecolor="#ffffff"
     bordercolor="#666666"
     borderopacity="1"
     objecttolerance="10"
     gridtolerance="10"
     guidetolerance="10"
     inkscape:pageopacity="0"
     inkscape:pageshadow="2"
     inkscape:window-width="2560"
     inkscape:window-height="1352"
     id="namedview19"
     showgrid="false"
     inkscape:zoom="3.9333333"
     inkscape:cx="-33.559322"
     inkscape:cy="30"
     inkscape:window-x="0"
     inkscape:window-y="800"
     inkscape:window-maximized="1"
     inkscape:current-layer="Layer_1" /><g
     id="g3"
     transform="matrix(1.0666667,0,0,1.0666667,-43.533356,-23.600013)"
     style="fill:#000000"><g
       id="g5"
       style="fill:#000000"><path
         d="m 683,406.1 c -9.4,0 -17,-7.6 -17,-17 0,-9.4 7.6,-17 17,-17 9.4,0 17,7.6 17,17 0,9.4 -7.6,17 -17,17 z m 0,-31.7 c -8.2,0 -14.7,6.6 -14.7,14.7 0,8.1 6.6,14.7 14.7,14.7 8.1,0 14.7,-6.6 14.7,-14.7 0,-8.1 -6.5,-14.7 -14.7,-14.7 z"
         id="path7"
         inkscape:connector-curvature="0"
         style="fill:#000000" /><path
         d="m 683,406.1 c -4.4,0 -6.8,-8.7 -6.8,-17 0,-8.3 2.4,-17 6.8,-17 4.4,0 6.8,8.7 6.8,17 0,8.3 -2.4,17 -6.8,17 z m 0,-31.7 c -1.8,0 -4.5,5.8 -4.5,14.7 0,8.9 2.7,14.7 4.5,14.7 1.9,0 4.5,-5.5 4.5,-14.7 0,-9.2 -2.6,-14.7 -4.5,-14.7 z"
         id="path9"
         inkscape:connector-curvature="0"
         style="fill:#000000" /><rect
         x="667.20001"
         y="388"
         width="31.700001"
         height="2.3"
         id="rect11"
         style="fill:#000000" /></g><g
       id="g13"
       style="fill:#000000"><path
         d="m 687,358 c -1,-1.1 -2.5,-1.7 -4,-1.7 -1.5,0 -2.9,0.6 -4,1.7 l -1.6,-1.7 c 1.5,-1.5 3.5,-2.3 5.5,-2.3 2.2,0 4.1,0.8 5.5,2.3 L 687,358 Z"
         id="path15"
         inkscape:connector-curvature="0"
         style="fill:#000000" /><polygon
         points="687,358 688.5,356.3 711.3,379 711.3,414 654.7,414 654.7,379 677.5,356.3 679,358 657,379.9 657,411.7 709,411.7 709,379.9 "
         id="polygon17"
         style="fill:#000000" /></g></g></svg>