<svg xmlns="http://www.w3.org/2000/svg" viewBox="0 0 64 64" enable-background="new 0 0 30 30" width="64" height="64"><g><g><path d="M32 55.474c-10.018 0-18.118-8.1-18.118-18.118 0-10.02 8.1-18.12 18.118-18.12 10.018 0 18.118 8.1 18.118 18.12 0 10.018-8.1 18.118-18.118 18.118zm0-33.68c-8.74 0-15.774 7.035-15.774 15.775 0 8.738 7.035 15.772 15.774 15.772 8.74 0 15.774-7.034 15.774-15.773 0-8.74-7.035-15.775-15.774-15.775z"/><path d="M32 55.474c-4.69 0-7.247-9.38-7.247-18.118 0-8.74 2.558-18.12 7.247-18.12 4.69 0 7.247 9.38 7.247 18.12S36.69 55.474 32 55.474zm0-33.68c-1.918 0-4.903 6.183-4.903 15.775 0 9.59 2.985 15.772 4.903 15.772 1.918 0 4.903-6.18 4.903-15.773 0-9.806-2.77-15.775-4.903-15.775z"/><path d="M15.16 36.29h33.892v2.344h-33.89z"/></g><g><path d="M36.263 4.103c-2.345-2.344-6.18-2.344-8.526 0l-1.705-1.705c3.197-3.197 8.74-3.197 11.936 0l-1.705 1.705z"/><path d="M36.263 4.103l1.705-1.705 24.3 24.3V64H1.732V26.698l24.3-24.3 1.705 1.705L4.29 27.55v34.105h55.42V27.55z"/></g></g></svg>