<svg xmlns="http://www.w3.org/2000/svg" viewBox="0 0 64 64" enable-background="new 0 0 30 30" width="64" height="64"><g><path d="M12.16 10.88h39.68v2.133H12.16z"/><path d="M12.16 35.2h39.68v2.133H12.16z"/><path d="M38.613 64H25.387c-7.894 0-14.294-6.4-14.294-14.293V14.293C11.093 6.4 17.493 0 25.387 0h13.226c7.894 0 14.294 6.4 14.294 14.293v35.414C52.907 57.6 46.507 64 38.613 64zM25.387 2.133c-6.614 0-12.16 5.547-12.16 12.16v35.414c0 6.613 5.546 12.16 12.16 12.16h13.226c6.614 0 12.16-5.547 12.16-12.16V14.293c0-6.613-5.546-12.16-12.16-12.16H25.387z"/><path d="M20.907 43.093h4.48v4.48h-4.48z"/><path d="M29.867 43.093h4.48v4.48h-4.48z"/><path d="M25.387 51.84h4.48v4.48h-4.48z"/><path d="M34.133 51.84h4.48v4.48h-4.48z"/><path d="M38.613 43.093h4.48v4.48h-4.48z"/></g></svg>