<svg xmlns="http://www.w3.org/2000/svg" viewBox="653 354 64 64" enable-background="new 653 354 60 60" width="64" height="64"><g transform="matrix(1.068 0 0 1.068 -44.75 -24.337)"><path d="M665.2 366.2h35.6v2h-35.6z"/><path d="M665.2 387.6h35.6v2h-35.6z"/><g><circle cx="679.9" cy="394.7" r="2"/><circle cx="679.9" cy="400.8" r="2"/></g><circle cx="672.8" cy="394.7" r="2"/><circle cx="672.8" cy="400.8" r="2"/><g><circle cx="687.1" cy="394.7" r="2"/><circle cx="687.1" cy="400.8" r="2"/></g><circle cx="679.9" cy="406.9" r="2"/><circle cx="687.1" cy="406.9" r="2"/><g><circle cx="694.2" cy="394.7" r="2"/><circle cx="694.2" cy="400.8" r="2"/></g><path d="M688.6 414h-11.2c-7.3 0-13.2-5.9-13.2-13.2v-33.5c0-7.3 5.9-13.2 13.2-13.2h11.2c7.3 0 13.2 5.9 13.2 13.2v33.5c0 7.3-5.9 13.2-13.2 13.2zm-11.2-57.9c-6.2 0-11.2 5-11.2 11.2v33.5c0 6.2 5 11.2 11.2 11.2h11.2c6.2 0 11.2-5 11.2-11.2v-33.5c0-6.2-5-11.2-11.2-11.2h-11.2z"/></g></svg>