<?xml version="1.0" encoding="UTF-8" standalone="no"?>
<!-- Generator: Adobe Illustrator 18.1.1, SVG Export Plug-In . SVG Version: 6.00 Build 0)  -->

<svg
   xmlns:dc="http://purl.org/dc/elements/1.1/"
   xmlns:cc="http://creativecommons.org/ns#"
   xmlns:rdf="http://www.w3.org/1999/02/22-rdf-syntax-ns#"
   xmlns:svg="http://www.w3.org/2000/svg"
   xmlns="http://www.w3.org/2000/svg"
   xmlns:sodipodi="http://sodipodi.sourceforge.net/DTD/sodipodi-0.dtd"
   xmlns:inkscape="http://www.inkscape.org/namespaces/inkscape"
   version="1.1"
   id="Layer_1"
   x="0px"
   y="0px"
   viewBox="0 0 64 64"
   enable-background="new 0 0 30 30"
   xml:space="preserve"
   inkscape:version="0.91 r13725"
   sodipodi:docname="celular-s.svg"
   width="64"
   height="64"><metadata
     id="metadata25"><rdf:RDF><cc:Work
         rdf:about=""><dc:format>image/svg+xml</dc:format><dc:type
           rdf:resource="http://purl.org/dc/dcmitype/StillImage" /><dc:title /></cc:Work></rdf:RDF></metadata><defs
     id="defs23" /><sodipodi:namedview
     pagecolor="#ffffff"
     bordercolor="#666666"
     borderopacity="1"
     objecttolerance="10"
     gridtolerance="10"
     guidetolerance="10"
     inkscape:pageopacity="0"
     inkscape:pageshadow="2"
     inkscape:window-width="2560"
     inkscape:window-height="1352"
     id="namedview21"
     showgrid="false"
     inkscape:zoom="7.8666667"
     inkscape:cx="-16.779661"
     inkscape:cy="15"
     inkscape:window-x="0"
     inkscape:window-y="800"
     inkscape:window-maximized="1"
     inkscape:current-layer="Layer_1" /><g
     id="g3"
     transform="scale(2.1333333,2.1333333)"
     style="fill:#000000"><rect
       x="5.6999998"
       y="5.0999999"
       width="18.6"
       height="1"
       id="rect5"
       style="fill:#000000" /><rect
       x="5.6999998"
       y="16.5"
       width="18.6"
       height="1"
       id="rect7"
       style="fill:#000000" /><path
       d="m 18.1,30 -6.2,0 C 8.2,30 5.2,27 5.2,23.3 L 5.2,6.7 C 5.2,3 8.2,0 11.9,0 l 6.2,0 c 3.7,0 6.7,3 6.7,6.7 l 0,16.6 c 0,3.7 -3,6.7 -6.7,6.7 z M 11.9,1 C 8.8,1 6.2,3.6 6.2,6.7 l 0,16.6 c 0,3.1 2.6,5.7 5.7,5.7 l 6.2,0 c 3.1,0 5.7,-2.6 5.7,-5.7 l 0,-16.6 C 23.8,3.6 21.2,1 18.1,1 l -6.2,0 z"
       id="path9"
       inkscape:connector-curvature="0"
       style="fill:#000000" /><rect
       x="9.8000002"
       y="20.200001"
       width="2.0999999"
       height="2.0999999"
       id="rect11"
       style="fill:#000000" /><rect
       x="14"
       y="20.200001"
       width="2.0999999"
       height="2.0999999"
       id="rect13"
       style="fill:#000000" /><rect
       x="11.9"
       y="24.299999"
       width="2.0999999"
       height="2.0999999"
       id="rect15"
       style="fill:#000000" /><rect
       x="16"
       y="24.299999"
       width="2.0999999"
       height="2.0999999"
       id="rect17"
       style="fill:#000000" /><rect
       x="18.1"
       y="20.200001"
       width="2.0999999"
       height="2.0999999"
       id="rect19"
       style="fill:#000000" /></g></svg>