<?xml version="1.0" encoding="UTF-8" standalone="no"?>
<!-- Generator: Adobe Illustrator 18.1.1, SVG Export Plug-In . SVG Version: 6.00 Build 0)  -->

<svg
   xmlns:dc="http://purl.org/dc/elements/1.1/"
   xmlns:cc="http://creativecommons.org/ns#"
   xmlns:rdf="http://www.w3.org/1999/02/22-rdf-syntax-ns#"
   xmlns:svg="http://www.w3.org/2000/svg"
   xmlns="http://www.w3.org/2000/svg"
   xmlns:sodipodi="http://sodipodi.sourceforge.net/DTD/sodipodi-0.dtd"
   xmlns:inkscape="http://www.inkscape.org/namespaces/inkscape"
   version="1.1"
   id="Layer_1"
   x="0px"
   y="0px"
   viewBox="0 0 64 64"
   enable-background="new 0 0 30 30"
   xml:space="preserve"
   inkscape:version="0.91 r13725"
   sodipodi:docname="email-s.svg"
   width="64"
   height="64"><metadata
     id="metadata9"><rdf:RDF><cc:Work
         rdf:about=""><dc:format>image/svg+xml</dc:format><dc:type
           rdf:resource="http://purl.org/dc/dcmitype/StillImage" /><dc:title></dc:title></cc:Work></rdf:RDF></metadata><defs
     id="defs7" /><sodipodi:namedview
     pagecolor="#ffffff"
     bordercolor="#666666"
     borderopacity="1"
     objecttolerance="10"
     gridtolerance="10"
     guidetolerance="10"
     inkscape:pageopacity="0"
     inkscape:pageshadow="2"
     inkscape:window-width="2560"
     inkscape:window-height="1352"
     id="namedview5"
     showgrid="false"
     inkscape:zoom="7.8666667"
     inkscape:cx="-0.88983051"
     inkscape:cy="15"
     inkscape:window-x="0"
     inkscape:window-y="800"
     inkscape:window-maximized="1"
     inkscape:current-layer="Layer_1" /><path
     d="M 42.879999,4.48 C 39.893333,1.7066667 36.053333,0 32,0 27.946666,0 24.106666,1.7066667 21.119999,4.48 l -18.7733325,18.773333 0,40.746667 59.3066675,0 0,-40.746667 L 42.879999,4.48 Z m -21.12,37.333333 c -0.213333,0.213334 -0.426666,0.426667 -0.64,0.64 l -16.4266658,17.28 0,-33.28 17.0666658,15.36 z m 1.92,-1.493333 -10.453332,-9.6 37.759999,0 -10.453333,9.6 c -5.333334,-3.2 -11.733334,-3.2 -16.853334,0 z m -0.853333,3.84 c 5.12,-5.12 13.44,-5.12 18.346667,0 l 16.426666,17.493333 -51.1999992,0 L 22.826666,44.16 Z m 20.053333,-1.706667 c -0.213332,-0.213333 -0.426666,-0.426666 -0.64,-0.64 L 59.306667,26.24 l 0,33.493333 L 42.88,42.453333 Z M 22.826666,6.1866667 c 2.56,-2.56 5.76,-3.84 9.173333,-3.84 3.413334,0 6.826668,1.28 9.173334,3.84 L 58.666667,23.68 l -5.333333,4.693333 -42.880001,0 L 5.1199998,23.68 22.826666,6.1866667 Z"
     id="path3"
     style="fill:#000000"
     inkscape:connector-curvature="0" /></svg>