<?xml version="1.0" encoding="UTF-8" standalone="no"?>
<!-- Generator: Adobe Illustrator 18.1.1, SVG Export Plug-In . SVG Version: 6.00 Build 0)  -->

<svg
   xmlns:dc="http://purl.org/dc/elements/1.1/"
   xmlns:cc="http://creativecommons.org/ns#"
   xmlns:rdf="http://www.w3.org/1999/02/22-rdf-syntax-ns#"
   xmlns:svg="http://www.w3.org/2000/svg"
   xmlns="http://www.w3.org/2000/svg"
   xmlns:sodipodi="http://sodipodi.sourceforge.net/DTD/sodipodi-0.dtd"
   xmlns:inkscape="http://www.inkscape.org/namespaces/inkscape"
   version="1.1"
   id="Layer_1"
   x="0px"
   y="0px"
   viewBox="0 0 64 64"
   enable-background="new 0 0 30 30"
   xml:space="preserve"
   inkscape:version="0.91 r13725"
   sodipodi:docname="fixo-s.svg"
   width="64"
   height="64"><metadata
     id="metadata23"><rdf:RDF><cc:Work
         rdf:about=""><dc:format>image/svg+xml</dc:format><dc:type
           rdf:resource="http://purl.org/dc/dcmitype/StillImage" /><dc:title /></cc:Work></rdf:RDF></metadata><defs
     id="defs21" /><sodipodi:namedview
     pagecolor="#ffffff"
     bordercolor="#666666"
     borderopacity="1"
     objecttolerance="10"
     gridtolerance="10"
     guidetolerance="10"
     inkscape:pageopacity="0"
     inkscape:pageshadow="2"
     inkscape:window-width="2560"
     inkscape:window-height="1352"
     id="namedview19"
     showgrid="false"
     inkscape:zoom="7.8666667"
     inkscape:cx="-16.779661"
     inkscape:cy="15"
     inkscape:window-x="0"
     inkscape:window-y="800"
     inkscape:window-maximized="1"
     inkscape:current-layer="Layer_1" /><g
     id="g3"
     transform="matrix(2.1333333,0,0,2.1333333,0.21333383,5.0000001e-7)"
     style="fill:#000000"><path
       d="m 18.5,23.9 -11.2,0 0,-20.4 11.2,0 0,20.4 z m -10.2,-1 9.2,0 0,-18.3 -9.2,0 0,18.3 z"
       id="path5"
       inkscape:connector-curvature="0"
       style="fill:#000000" /><rect
       x="7.3000002"
       y="0"
       width="1"
       height="4.0999999"
       id="rect7"
       style="fill:#000000" /><rect
       x="7.8000002"
       y="10.7"
       width="10.2"
       height="1"
       id="rect9"
       style="fill:#000000" /><rect
       x="21.1"
       y="22.4"
       width="2"
       height="2"
       id="rect11"
       style="fill:#000000" /><rect
       x="11.9"
       y="18.299999"
       width="2"
       height="2"
       id="rect13"
       style="fill:#000000" /><rect
       x="11.9"
       y="14.2"
       width="2"
       height="2"
       id="rect15"
       style="fill:#000000" /><path
       d="m 21.1,16.8 -3.1,0 0,1 3.1,0 c 3.1,0 5.6,2.5 5.6,5.6 0,3.1 -2.6,5.6 -5.6,5.6 L 8.8,29 c -3.1,0 -5.6,-2.5 -5.6,-5.6 0,-2.9 2.2,-5.3 5.1,-5.6 l 0,-1 c -3.4,0.3 -6.1,3.1 -6.1,6.6 0,3.6 3,6.6 6.6,6.6 L 21,30 c 3.6,0 6.6,-3 6.6,-6.6 0,-3.6 -2.9,-6.6 -6.5,-6.6 z"
       id="path17"
       inkscape:connector-curvature="0"
       style="fill:#000000" /></g></svg>