<svg xmlns="http://www.w3.org/2000/svg" viewBox="653 354 64 64" enable-background="new 653 354 60 60" width="64" height="64"><g transform="matrix(1.07 0 0 1.07 -45.916 -24.863)"><path d="M683.8 413.8h-1.2c-16.4 0-29.6-13.3-29.6-29.6s13.3-29.6 29.6-29.6h1.2v59.2zm-2.4-56.8c-14.5.6-26.1 12.6-26.1 27.3 0 14.7 11.6 26.7 26.1 27.3V357z"/><path d="M682.6 413.8c-8.7 0-15.4-13-15.4-29.6s6.8-29.6 15.4-29.6v2.4c-7.1 0-13 12.4-13 27.3s5.9 27.3 13 27.3 13-12.6 13-27.3h2.4c0 16.5-6.7 29.5-15.4 29.5z"/><path d="M682.6 413.8v-2.4c14.6 0 26.7-11.6 27.3-26.1h-55.7V383h58.1v1.2c-.1 16.4-13.3 29.6-29.7 29.6z"/><circle cx="711.1" cy="377.7" r="1.8"/><circle cx="708.1" cy="370.6" r="1.8"/><circle cx="703.4" cy="364.1" r="1.8"/><circle cx="696.8" cy="359.3" r="1.8"/><circle cx="689.1" cy="355.8" r="1.8"/></g></svg>