<?xml version="1.0" encoding="UTF-8" standalone="no"?>
<!-- Generator: Adobe Illustrator 18.1.1, SVG Export Plug-In . SVG Version: 6.00 Build 0)  -->

<svg
   xmlns:dc="http://purl.org/dc/elements/1.1/"
   xmlns:cc="http://creativecommons.org/ns#"
   xmlns:rdf="http://www.w3.org/1999/02/22-rdf-syntax-ns#"
   xmlns:svg="http://www.w3.org/2000/svg"
   xmlns="http://www.w3.org/2000/svg"
   xmlns:sodipodi="http://sodipodi.sourceforge.net/DTD/sodipodi-0.dtd"
   xmlns:inkscape="http://www.inkscape.org/namespaces/inkscape"
   version="1.1"
   id="Layer_1"
   x="0px"
   y="0px"
   viewBox="0 0 64 64"
   enable-background="new 0 0 30 30"
   xml:space="preserve"
   inkscape:version="0.91 r13725"
   sodipodi:docname="ligacao-s.svg"
   width="64"
   height="64"><metadata
     id="metadata9"><rdf:RDF><cc:Work
         rdf:about=""><dc:format>image/svg+xml</dc:format><dc:type
           rdf:resource="http://purl.org/dc/dcmitype/StillImage" /><dc:title></dc:title></cc:Work></rdf:RDF></metadata><defs
     id="defs7" /><sodipodi:namedview
     pagecolor="#ffffff"
     bordercolor="#666666"
     borderopacity="1"
     objecttolerance="10"
     gridtolerance="10"
     guidetolerance="10"
     inkscape:pageopacity="0"
     inkscape:pageshadow="2"
     inkscape:window-width="2560"
     inkscape:window-height="1352"
     id="namedview5"
     showgrid="false"
     inkscape:zoom="7.8666667"
     inkscape:cx="-0.88983051"
     inkscape:cy="15"
     inkscape:window-x="0"
     inkscape:window-y="800"
     inkscape:window-maximized="1"
     inkscape:current-layer="Layer_1" /><path
     d="m 43.704698,64 c -1.28859,0 -2.791947,-0.214765 -4.080537,-0.42953 -1.28859,-0.214765 -2.791947,-0.644296 -4.080537,-1.288591 l -2.147651,-0.85906 0,0 C 26.52349,58.201342 20.510068,53.90604 15.14094,48.536913 9.9865775,43.38255 5.6912753,37.369128 2.4697988,30.711409 l 0,0 -1.2885906,-2.791946 c -0.6442953,-1.288591 -1.0738255,-2.577181 -1.2885906,-4.080537 0,-1.073825 -0.2147651,-2.362416 -0.2147651,-3.651007 0,-9.449664 6.442953,-17.6107378 16.1073825,-19.7583888 L 17.932886,0 l 0.85906,1.9328859 c 1.503356,3.6510067 2.577181,7.3020134 3.221476,10.5234901 0.644296,2.791946 1.073826,5.583892 1.288591,8.375839 l 0.214765,1.718121 -7.302013,3.865771 c 4.939597,9.2349 12.456376,16.966443 21.906041,21.691276 l 3.436242,-7.516779 1.71812,0.214765 c 2.791947,0.214765 5.369127,0.644295 8.161074,1.288591 3.865771,0.85906 7.516778,2.147651 10.95302,3.651006 l 1.932885,0.859061 -0.42953,2.147651 C 61.315436,57.557047 53.154362,64 43.704698,64 Z M 37.04698,59.704698 c 1.073825,0.42953 2.147651,0.85906 3.221476,1.073825 1.073826,0.214766 2.362417,0.429531 3.436242,0.429531 7.946308,0 14.818792,-5.369128 16.966444,-13.100671 -3.221477,-1.288591 -6.657719,-2.362417 -9.879195,-3.221477 -2.577181,-0.644295 -5.154362,-0.85906 -7.731544,-1.073825 l -3.865771,8.375838 -1.288591,-0.85906 C 26.95302,46.174497 17.932886,37.154362 12.563759,26.201342 l -0.644295,-1.28859 8.161073,-4.295302 C 19.865771,18.255034 19.651006,15.677852 19.006712,13.315436 18.147651,9.4496644 17.288591,6.442953 16,3.4362416 8.0536914,5.3691275 2.6845639,12.241611 2.6845639,20.187919 c 0,1.073826 0.2147651,2.147651 0.4295302,3.436242 0.2147651,1.073826 0.6442953,2.362416 1.0738255,3.436242 l 0.4295302,1.073825 c 3.0067114,6.872483 7.3020132,13.100671 12.6711412,18.469799 5.369128,5.369127 11.597315,9.664429 18.469798,12.885906 l 1.288591,0.214765 z"
     id="path3"
     style="fill:#000000"
     inkscape:connector-curvature="0" /></svg>