<svg xmlns="http://www.w3.org/2000/svg" viewBox="0 0 64 64" enable-background="new 0 0 30 30" width="64" height="64"><g><path d="M49.067 63.86H14.72C6.613 63.648 0 57.035 0 48.928V23.754C0 15.647 6.613 8.82 14.933 8.82h34.134C57.173 8.82 64 15.435 64 23.755v25.173c0 8.32-6.613 14.934-14.933 14.934zm-34.134-2.346h34.134c7.04 0 12.586-5.547 12.586-12.587V23.754c0-7.04-5.546-12.587-12.586-12.587H14.933c-7.04 0-12.586 5.547-12.586 12.587v25.173c0 7.04 5.546 12.587 12.586 12.587z"/><path d="M1.067 47.86h61.866v2.347H1.067z"/><g><path d="M39.244.132l1.66 1.658-9.2 9.2-1.66-1.66z"/><path d="M24.867.16l9.2 9.2-1.66 1.66-9.198-9.2z"/></g><path d="M44.587 53.62h4.48v4.48h-4.48z"/></g></svg>