<?xml version="1.0" encoding="UTF-8" standalone="no"?>
<!-- Generator: Adobe Illustrator 18.1.1, SVG Export Plug-In . SVG Version: 6.00 Build 0)  -->

<svg
   xmlns:dc="http://purl.org/dc/elements/1.1/"
   xmlns:cc="http://creativecommons.org/ns#"
   xmlns:rdf="http://www.w3.org/1999/02/22-rdf-syntax-ns#"
   xmlns:svg="http://www.w3.org/2000/svg"
   xmlns="http://www.w3.org/2000/svg"
   xmlns:sodipodi="http://sodipodi.sourceforge.net/DTD/sodipodi-0.dtd"
   xmlns:inkscape="http://www.inkscape.org/namespaces/inkscape"
   version="1.1"
   id="Layer_1"
   x="0px"
   y="0px"
   viewBox="30 354 64 64"
   enable-background="new 30 354 60 60"
   xml:space="preserve"
   inkscape:version="0.91 r13725"
   sodipodi:docname="tv.svg"
   width="64"
   height="64"><metadata
     id="metadata25"><rdf:RDF><cc:Work
         rdf:about=""><dc:format>image/svg+xml</dc:format><dc:type
           rdf:resource="http://purl.org/dc/dcmitype/StillImage" /><dc:title /></cc:Work></rdf:RDF></metadata><defs
     id="defs23" /><sodipodi:namedview
     pagecolor="#ffffff"
     bordercolor="#666666"
     borderopacity="1"
     objecttolerance="10"
     gridtolerance="10"
     guidetolerance="10"
     inkscape:pageopacity="0"
     inkscape:pageshadow="2"
     inkscape:window-width="2560"
     inkscape:window-height="1352"
     id="namedview21"
     showgrid="false"
     inkscape:zoom="3.9333333"
     inkscape:cx="-33.559322"
     inkscape:cy="30"
     inkscape:window-x="0"
     inkscape:window-y="800"
     inkscape:window-maximized="1"
     inkscape:current-layer="Layer_1" /><g
     id="g3"
     transform="matrix(1.0702341,0,0,1.0702341,-2.214046,-25.022413)"
     style="fill:#000000"><path
       d="m 76,413 -32.1,0 c -7.7,-0.1 -13.8,-6.3 -13.8,-13.9 l 0,-23.5 c 0,-7.7 6.2,-13.9 13.9,-13.9 l 32,0 c 7.7,0 13.9,6.2 13.9,13.9 l 0,23.5 c 0,7.7 -6.2,13.9 -13.9,13.9 z m -31.9,-2.2 32,0 c 6.5,0 11.8,-5.2 11.8,-11.8 l 0,-23.5 c 0,-6.5 -5.2,-11.8 -11.8,-11.8 l -32.1,0 c -6.5,0 -11.8,5.2 -11.8,11.8 l 0,23.5 c 0,6.6 5.4,11.8 11.9,11.8 z"
       id="path5"
       inkscape:connector-curvature="0"
       style="fill:#000000" /><rect
       x="32.200001"
       y="400.10001"
       width="55.599998"
       height="2.0999999"
       id="rect7"
       style="fill:#000000" /><circle
       cx="75"
       cy="406.60001"
       r="1.6"
       id="circle9"
       style="fill:#000000" /><rect
       x="52.5"
       y="401.20001"
       width="2.0999999"
       height="10.7"
       id="rect11"
       style="fill:#000000" /><rect
       x="42.900002"
       y="401.20001"
       width="2.0999999"
       height="10.7"
       id="rect13"
       style="fill:#000000" /><g
       id="g15"
       style="fill:#000000"><rect
         x="62.400002"
         y="354.5"
         transform="matrix(-0.7071,-0.7071,0.7071,-0.7071,-145.523,657.8538)"
         width="2.0999999"
         height="9.1000004"
         id="rect17"
         style="fill:#000000" /><rect
         x="52.5"
         y="357.89999"
         transform="matrix(-0.7071,-0.7071,0.7071,-0.7071,-156.4167,653.2115)"
         width="9.1000004"
         height="2.0999999"
         id="rect19"
         style="fill:#000000" /></g></g></svg>