<?xml version="1.0" encoding="UTF-8" standalone="no"?>
<!-- Generator: Adobe Illustrator 18.1.1, SVG Export Plug-In . SVG Version: 6.00 Build 0)  -->

<svg
   xmlns:dc="http://purl.org/dc/elements/1.1/"
   xmlns:cc="http://creativecommons.org/ns#"
   xmlns:rdf="http://www.w3.org/1999/02/22-rdf-syntax-ns#"
   xmlns:svg="http://www.w3.org/2000/svg"
   xmlns="http://www.w3.org/2000/svg"
   xmlns:sodipodi="http://sodipodi.sourceforge.net/DTD/sodipodi-0.dtd"
   xmlns:inkscape="http://www.inkscape.org/namespaces/inkscape"
   version="1.1"
   id="Layer_1"
   x="0px"
   y="0px"
   viewBox="0 0 64 64"
   enable-background="new 0 0 30 30"
   xml:space="preserve"
   inkscape:version="0.91 r13725"
   sodipodi:docname="user-s.svg"
   width="64"
   height="64"><metadata
     id="metadata9"><rdf:RDF><cc:Work
         rdf:about=""><dc:format>image/svg+xml</dc:format><dc:type
           rdf:resource="http://purl.org/dc/dcmitype/StillImage" /><dc:title></dc:title></cc:Work></rdf:RDF></metadata><defs
     id="defs7" /><sodipodi:namedview
     pagecolor="#ffffff"
     bordercolor="#666666"
     borderopacity="1"
     objecttolerance="10"
     gridtolerance="10"
     guidetolerance="10"
     inkscape:pageopacity="0"
     inkscape:pageshadow="2"
     inkscape:window-width="2560"
     inkscape:window-height="1352"
     id="namedview5"
     showgrid="false"
     inkscape:zoom="7.8666667"
     inkscape:cx="-0.88983051"
     inkscape:cy="15"
     inkscape:window-x="0"
     inkscape:window-y="800"
     inkscape:window-maximized="1"
     inkscape:current-layer="Layer_1" /><path
     d="M 40.64,37.12 C 47.04,33.92 51.52,27.306667 51.52,19.626667 51.733333,8.7466667 42.773333,0 32.106667,0 21.44,0 12.48,8.7466667 12.48,19.626667 12.48,27.306667 16.96,33.92 23.36,37.12 10.773333,39.893333 2.24,49.706667 2.24,62.72 l 0,1.28 59.52,0 0,-1.493333 c 0,-12.8 -8.533333,-22.613334 -21.12,-25.386667 z M 15.466667,19.626667 c 0,-9.173334 7.466666,-16.64 16.64,-16.64 9.173333,0 16.64,7.466666 16.64,16.64 0,9.173333 -7.466667,16.64 -16.64,16.64 -9.173334,0 -16.64,-7.466667 -16.64,-16.64 z m -10.24,41.6 C 5.866667,48.426667 16.533333,39.04 31.04,39.04 l 2.346667,0 c 14.506666,0 24.96,9.173333 25.813333,22.186667 l -53.973333,0 z"
     id="path3"
     style="fill:#000000"
     inkscape:connector-curvature="0" /></svg>