<svg xmlns="http://www.w3.org/2000/svg" viewBox="0 0 64 64" enable-background="new 0 0 30 30" width="64" height="64"><path d="M40.64 37.12c6.4-3.2 10.88-9.813 10.88-17.493C51.733 8.747 42.773 0 32.107 0 21.44 0 12.48 8.747 12.48 19.627c0 7.68 4.48 14.293 10.88 17.493-12.587 2.773-21.12 12.587-21.12 25.6V64h59.52v-1.493c0-12.8-8.533-22.614-21.12-25.387zM15.467 19.627c0-9.174 7.466-16.64 16.64-16.64 9.173 0 16.64 7.466 16.64 16.64 0 9.173-7.467 16.64-16.64 16.64-9.174 0-16.64-7.467-16.64-16.64zm-10.24 41.6c.64-12.8 11.306-22.187 25.813-22.187h2.347c14.506 0 24.96 9.173 25.813 22.187H5.227z"/></svg>