<?xml version="1.0" encoding="UTF-8" standalone="no"?>
<!-- Generator: Adobe Illustrator 18.1.1, SVG Export Plug-In . SVG Version: 6.00 Build 0)  -->

<svg
   xmlns:dc="http://purl.org/dc/elements/1.1/"
   xmlns:cc="http://creativecommons.org/ns#"
   xmlns:rdf="http://www.w3.org/1999/02/22-rdf-syntax-ns#"
   xmlns:svg="http://www.w3.org/2000/svg"
   xmlns="http://www.w3.org/2000/svg"
   xmlns:sodipodi="http://sodipodi.sourceforge.net/DTD/sodipodi-0.dtd"
   xmlns:inkscape="http://www.inkscape.org/namespaces/inkscape"
   version="1.1"
   id="Layer_1"
   x="0px"
   y="0px"
   viewBox="0 0 64 64"
   enable-background="new 0 0 30 30"
   xml:space="preserve"
   inkscape:version="0.91 r13725"
   sodipodi:docname="via-s.svg"
   width="64"
   height="64"><metadata
     id="metadata15"><rdf:RDF><cc:Work
         rdf:about=""><dc:format>image/svg+xml</dc:format><dc:type
           rdf:resource="http://purl.org/dc/dcmitype/StillImage" /><dc:title></dc:title></cc:Work></rdf:RDF></metadata><defs
     id="defs13" /><sodipodi:namedview
     pagecolor="#ffffff"
     bordercolor="#666666"
     borderopacity="1"
     objecttolerance="10"
     gridtolerance="10"
     guidetolerance="10"
     inkscape:pageopacity="0"
     inkscape:pageshadow="2"
     inkscape:window-width="2560"
     inkscape:window-height="1352"
     id="namedview11"
     showgrid="false"
     inkscape:zoom="7.8666667"
     inkscape:cx="-0.88983051"
     inkscape:cy="15"
     inkscape:window-x="0"
     inkscape:window-y="800"
     inkscape:window-maximized="1"
     inkscape:current-layer="Layer_1" /><g
     id="g3"
     style="fill:#000000"
     transform="matrix(2.1333333,0,0,2.1333333,0.10666717,5e-7)"><path
       d="m 2.2,0 0,30 17.4,0 8.1,-7 0,-23 -25.5,0 z m 17.8,28.2 0,-4.9 5.7,0 -5.7,4.9 z m 6.7,-6 -7.8,0 0,6.7 -15.6,0 0,-27.8 23.3,0 0,21.1 z"
       id="path5"
       style="fill:#000000"
       inkscape:connector-curvature="0" /><path
       d="m 8.2,10.9 2.1,0 2.9,4.9 0.9,0 -2.9,-4.9 c 1.6,-0.1 2.6,-1.3 2.6,-2.8 0,-1.6 -1.1,-2.8 -2.9,-2.8 l -3.5,0 0,10.5 0.8,0 0,-4.9 z m 0,-4.8 2.8,0 c 1.1,0 2.1,0.7 2.1,2 0,1.3 -0.9,2 -2.1,2 l -2.8,0 0,-4 z"
       id="path7"
       style="fill:#000000"
       inkscape:connector-curvature="0" /><path
       d="m 19.5,15.2 c -1.3,0 -2.4,-0.8 -2.5,-2.3 l -0.8,0 c 0.1,1.7 1.2,2.9 2.7,3.1 l 0,1.3 1.1,0 0,-1.3 c 1.8,-0.2 2.6,-1.4 2.6,-2.8 0,-1.5 -0.9,-2.4 -2.1,-2.7 L 18.6,10 C 17.7,9.7 17.1,9 17.1,8 c 0,-1.1 0.7,-2 2.1,-2 1.2,0 2,0.6 2.3,1.9 l 0.8,0 C 22,6.4 21.2,5.5 19.9,5.3 l 0,-1.4 -1.1,0 0,1.3 c -1.6,0.2 -2.6,1.3 -2.6,2.8 0,1.3 0.7,2.4 2,2.8 l 1.8,0.5 c 1.1,0.3 1.6,1.1 1.6,1.9 0.2,1.3 -0.7,2 -2.1,2 z"
       id="path9"
       style="fill:#000000"
       inkscape:connector-curvature="0" /></g></svg>