<?xml version="1.0" encoding="UTF-8" standalone="no"?>
<!-- Generator: Adobe Illustrator 18.1.1, SVG Export Plug-In . SVG Version: 6.00 Build 0)  -->

<svg
   xmlns:dc="http://purl.org/dc/elements/1.1/"
   xmlns:cc="http://creativecommons.org/ns#"
   xmlns:rdf="http://www.w3.org/1999/02/22-rdf-syntax-ns#"
   xmlns:svg="http://www.w3.org/2000/svg"
   xmlns="http://www.w3.org/2000/svg"
   xmlns:sodipodi="http://sodipodi.sourceforge.net/DTD/sodipodi-0.dtd"
   xmlns:inkscape="http://www.inkscape.org/namespaces/inkscape"
   version="1.1"
   id="Layer_1"
   x="0px"
   y="0px"
   viewBox="0 0 64 64"
   enable-background="new 0 0 30 30"
   xml:space="preserve"
   inkscape:version="0.91 r13725"
   sodipodi:docname="banda-s.svg"
   width="64"
   height="64"><metadata
     id="metadata23"><rdf:RDF><cc:Work
         rdf:about=""><dc:format>image/svg+xml</dc:format><dc:type
           rdf:resource="http://purl.org/dc/dcmitype/StillImage" /><dc:title /></cc:Work></rdf:RDF></metadata><defs
     id="defs21" /><sodipodi:namedview
     pagecolor="#ffffff"
     bordercolor="#666666"
     borderopacity="1"
     objecttolerance="10"
     gridtolerance="10"
     guidetolerance="10"
     inkscape:pageopacity="0"
     inkscape:pageshadow="2"
     inkscape:window-width="2560"
     inkscape:window-height="1352"
     id="namedview19"
     showgrid="false"
     inkscape:zoom="7.8666667"
     inkscape:cx="13.760845"
     inkscape:cy="23.336937"
     inkscape:window-x="0"
     inkscape:window-y="800"
     inkscape:window-maximized="1"
     inkscape:current-layer="Layer_1" /><g
     id="g3"
     transform="matrix(2.131557,0,0,2.131557,0.026645,0.05328946)"
     style="fill:#000000"><g
       id="g5"
       style="fill:#000000"><path
         d="M 15,26 C 10.3,26 6.5,22.2 6.5,17.5 6.5,12.8 10.3,9 15,9 c 4.7,0 8.5,3.8 8.5,8.5 0,4.7 -3.8,8.5 -8.5,8.5 z m 0,-15.8 c -4.1,0 -7.4,3.3 -7.4,7.4 0,4.1 3.3,7.4 7.4,7.4 4.1,0 7.4,-3.3 7.4,-7.4 0,-4.1 -3.3,-7.4 -7.4,-7.4 z"
         id="path7"
         inkscape:connector-curvature="0"
         style="fill:#000000" /><path
         d="m 15,26 c -2.2,0 -3.4,-4.4 -3.4,-8.5 0,-4.1 1.2,-8.5 3.4,-8.5 2.2,0 3.4,4.4 3.4,8.5 0,4.1 -1.2,8.5 -3.4,8.5 z m 0,-15.8 c -0.9,0 -2.3,2.9 -2.3,7.4 0,4.5 1.4,7.4 2.3,7.4 0.9,0 2.3,-2.9 2.3,-7.4 C 17.3,13 16,10.2 15,10.2 Z"
         id="path9"
         inkscape:connector-curvature="0"
         style="fill:#000000" /><rect
         x="7.0999999"
         y="17"
         width="15.9"
         height="1.1"
         id="rect11"
         style="fill:#000000" /></g><g
       id="g13"
       style="fill:#000000"><path
         d="M 17,1.9 C 15.9,0.8 14.1,0.8 13,1.9 L 12.2,1.1 c 1.5,-1.5 4.1,-1.5 5.6,0 L 17,1.9 Z"
         id="path15"
         inkscape:connector-curvature="0"
         style="fill:#000000" /><polygon
         points="17,1.9 17.8,1.1 29.2,12.5 29.2,30 0.8,30 0.8,12.5 12.2,1.1 13,1.9 2,12.9 2,28.9 28,28.9 28,12.9 "
         id="polygon17"
         style="fill:#000000" /></g></g></svg>