<svg xmlns="http://www.w3.org/2000/svg" viewBox="653 354 64 64" enable-background="new 653 354 60 60" width="64" height="64"><g><g><path d="M685 409.573c-10.027 0-18.133-8.106-18.133-18.133s8.106-18.133 18.133-18.133 18.133 8.106 18.133 18.133-8.106 18.133-18.133 18.133zm0-33.813c-8.747 0-15.68 7.04-15.68 15.68s7.04 15.68 15.68 15.68 15.68-7.04 15.68-15.68-6.933-15.68-15.68-15.68z"/><path d="M685 409.573c-4.693 0-7.253-9.28-7.253-18.133s2.56-18.133 7.253-18.133 7.253 9.28 7.253 18.133-2.56 18.133-7.253 18.133zm0-33.813c-1.92 0-4.8 6.187-4.8 15.68 0 9.493 2.88 15.68 4.8 15.68 2.027 0 4.8-5.867 4.8-15.68 0-9.813-2.773-15.68-4.8-15.68z"/><path d="M668.147 390.267h33.813v2.453h-33.813z"/></g><g><path d="M689.267 358.267c-1.067-1.174-2.667-1.814-4.267-1.814-1.6 0-3.093.64-4.267 1.814l-1.706-1.814c1.6-1.6 3.733-2.453 5.866-2.453 2.347 0 4.374.853 5.867 2.453l-1.493 1.814z"/><path d="M689.267 358.267l1.6-1.814 24.32 24.214V418h-60.374v-37.333l24.32-24.214 1.6 1.814-23.466 23.36v33.92h55.466v-33.92z"/></g></g></svg>