<?xml version="1.0" encoding="utf-8"?>
<svg enable-background="new 0 0 100 100" id="banda-s" version="1.1" viewBox="0 0 100 100" x="0px" xml:space="preserve" xmlns="http://www.w3.org/2000/svg" xmlns:xlink="http://www.w3.org/1999/xlink" y="0px">
  <path d="M21.6,58.5c0,15.6,12.7,28.3,28.3,28.3c15.6,0,28.3-12.7,28.3-28.3S65.6,30.2,49.9,30.2C34.3,30.2,21.6,42.7,21.6,58.5z    M43.4,35c-3,5.2-4.5,13.4-4.7,21.7H25.4C26.2,46.3,33.5,37.7,43.4,35z M25.4,60.3h13.3c0.3,8.6,2,17.3,5.3,22.2   C33.7,80,26,71.3,25.4,60.3z M49.9,83.3c-2.8,0-7.3-8.9-7.7-23h15.3C57.4,74.4,52.8,83.3,49.9,83.3z M56.1,82.7   c3.1-5,5-13.6,5.3-22.2h13.3C73.9,71.3,66.3,80,56.1,82.7z M74.6,56.7H61.3C61.1,48.4,59.4,40,56.6,35   C66.4,37.7,73.8,46.3,74.6,56.7z M57.7,56.8H42.3c0.4-14,4.7-22.7,7.6-22.7C53.1,34.1,57.3,42.7,57.7,56.8z"/>
  <path d="M59.4,3.8c-5-5-13.6-5-18.6,0l-38,38V100h94.5V41.7L59.4,3.8z M93.2,96.4c0,0-86.5,0-86.5,0V43.1L43.2,6.5   c3.6-3.6,9.7-3.6,13.3,0l36.6,36.6V96.4z"/>
</svg>
