<svg enable-background="new 0 0 100 100" id="celular-s" version="1.1" viewBox="0 0 100 100" x="0px" xml:space="preserve" xmlns="http://www.w3.org/2000/svg" xmlns:xlink="http://www.w3.org/1999/xlink" y="0px">
  <path d="M 39.699219 0 C 27.299219 0 17.300781 10.000781 17.300781 22.300781 L 17.300781 77.599609 C 17.300781 89.899609 27.299609 99.900391 39.599609 99.900391 L 60.199219 99.900391 C 72.499219 99.900391 82.5 89.899609 82.5 77.599609 L 82.5 22.300781 C 82.7 10.000781 72.700781 2.3684758e-15 60.300781 0 L 39.699219 0 z M 39.699219 3.3007812 L 60.300781 3.3007812 C 68.700781 3.3007812 76.100391 9.1003906 78.400391 16.900391 L 21.400391 16.900391 C 23.800391 9.2003906 31.199219 3.3007813 39.699219 3.3007812 z M 21 20.300781 L 79.400391 20.300781 C 79.200391 20.900781 79.400391 21.700781 79.400391 22.300781 L 79.400391 55 L 20.800781 55 L 20.800781 22.300781 C 20.800781 21.700781 20.8 20.900781 21 20.300781 z M 20.599609 58.300781 L 79.199219 58.300781 L 79.199219 77.699219 C 79.399219 87.999219 70.600781 96.800781 60.300781 96.800781 L 39.699219 96.800781 C 29.399219 96.800781 20.599609 88.199219 20.599609 77.699219 L 20.599609 58.300781 z M 32.699219 67.300781 L 32.699219 74.300781 L 39.699219 74.300781 L 39.699219 67.300781 L 32.699219 67.300781 z M 46.699219 67.300781 L 46.699219 74.300781 L 53.699219 74.300781 L 53.699219 67.300781 L 46.699219 67.300781 z M 60.300781 67.300781 L 60.300781 74.300781 L 67.300781 74.300781 L 67.300781 67.300781 L 60.300781 67.300781 z M 39.699219 80.900391 L 39.699219 87.900391 L 46.699219 87.900391 L 46.699219 80.900391 L 39.699219 80.900391 z M 53.300781 80.900391 L 53.300781 87.900391 L 60.300781 87.900391 L 60.300781 80.900391 L 53.300781 80.900391 z " />
  </svg>
