<svg enable-background="new 0 0 100 100" id="icon-celular" version="1.1" viewBox="0 0 100 100" x="0px" xml:space="preserve" xmlns="http://www.w3.org/2000/svg" xmlns:xlink="http://www.w3.org/1999/xlink" y="0px">
  <g>
    <g>
      <circle cx="44.8" cy="67.8" r="3.3"/>
    </g>
    <g>
      <circle cx="44.8" cy="78" r="3.3"/>
    </g>
    <g>
      <circle cx="33" cy="67.8" r="3.3"/>
    </g>
    <g>
      <circle cx="33" cy="78" r="3.3"/>
    </g>
    <g>
      <circle cx="56.9" cy="67.8" r="3.3"/>
    </g>
    <g>
      <circle cx="56.9" cy="78" r="3.3"/>
    </g>
    <g>
      <circle cx="44.8" cy="88.1" r="3.3"/>
    </g>
    <g>
      <circle cx="56.9" cy="88.1" r="3.3"/>
    </g>
    <g>
      <circle cx="68.8" cy="67.8" r="3.3"/>
    </g>
    <g>
      <circle cx="68.8" cy="78" r="3.3"/>
    </g>
  </g>
  <g>
    <path d="M59.4,0H40.6c-12.2,0-22,9.8-22,22V78c0,12.2,9.8,22,22,22h18.8c12.2,0,22-9.8,22-22V22C81.4,9.8,71.6,0,59.4,0z M78,78   c0,10.3-8.3,18.8-18.6,18.8H40.6c-10.3,0-18.8-8.3-18.8-18.8V59.2H78V78z M78,55.9H21.9V23.6H78V55.9z M22,20.2   C23,10.8,30.9,3.3,40.6,3.3h18.8c9.7,0,17.7,7.3,18.6,16.9H22z"/>
  </g>
</svg>
