<?xml version="1.0" encoding="utf-8"?>
<!-- Generator: Adobe Illustrator 18.1.1, SVG Export Plug-In . SVG Version: 6.00 Build 0)  -->
<!DOCTYPE svg PUBLIC "-//W3C//DTD SVG 1.1//EN" "http://www.w3.org/Graphics/SVG/1.1/DTD/svg11.dtd">
<svg version="1.1" id="Layer_1" xmlns="http://www.w3.org/2000/svg" xmlns:xlink="http://www.w3.org/1999/xlink" x="0px" y="0px"
	 viewBox="0 0 30 30" enable-background="new 0 0 30 30" xml:space="preserve">
<path fill="#00A696" d="M20.1,2.1C18.7,0.8,16.9,0,15,0s-3.7,0.8-5.1,2.1l-8.8,8.8V30h27.8V10.9L20.1,2.1z M10.2,19.6
	c-0.1,0.1-0.2,0.2-0.3,0.3L2.2,28V12.4L10.2,19.6z M11.1,18.9l-4.9-4.5h17.7l-4.9,4.5C16.5,17.4,13.5,17.4,11.1,18.9z M10.7,20.7
	c2.4-2.4,6.3-2.4,8.6,0l7.7,8.2H3L10.7,20.7z M20.1,19.9c-0.1-0.1-0.2-0.2-0.3-0.3l8-7.3V28L20.1,19.9z M10.7,2.9
	c1.2-1.2,2.7-1.8,4.3-1.8c1.6,0,3.2,0.6,4.3,1.8l8.2,8.2l-2.5,2.2H4.9l-2.5-2.2L10.7,2.9z"/>
</svg>
