<svg xmlns="http://www.w3.org/2000/svg" viewBox="0 0 64 64" enable-background="new 0 0 30 30" width="64" height="64"><path d="M42.88 4.48C39.893 1.707 36.053 0 32 0c-4.053 0-7.893 1.707-10.88 4.48L2.347 23.253V64h59.306V23.253L42.88 4.48zM21.76 41.813l-.64.64-16.427 17.28v-33.28l17.067 15.36zm1.92-1.493l-10.453-9.6h37.76l-10.454 9.6c-5.333-3.2-11.733-3.2-16.853 0zm-.853 3.84c5.12-5.12 13.44-5.12 18.346 0L57.6 61.653H6.4L22.827 44.16zm20.053-1.707l-.64-.64L59.307 26.24v33.493L42.88 42.453zM22.827 6.187c2.56-2.56 5.76-3.84 9.173-3.84 3.413 0 6.827 1.28 9.173 3.84L58.667 23.68l-5.334 4.693h-42.88L5.12 23.68 22.827 6.187z"/></svg>