<svg enable-background="new 0 0 100 100" class="icon-fixo" version="1.1" viewBox="0 0 100 100" x="0px" xml:space="preserve" xmlns="http://www.w3.org/2000/svg" xmlns:xlink="http://www.w3.org/1999/xlink" y="0px">
  <g>
    <g>
      <circle cx="75.7" cy="77.6" r="3.4"/>
    </g>
    <g>
      <circle cx="51.6" cy="62.1" r="3.4"/>
    </g>
    <g>
      <circle cx="39.6" cy="62.1" r="3.4"/>
    </g>
    <g>
      <circle cx="51.6" cy="50.1" r="3.4"/>
    </g>
    <g>
      <circle cx="39.6" cy="50.1" r="3.4"/>
    </g>
  </g>
  <g>
    <path d="M70.6,55.4h-5.2V8.6H29.3V0h-3.4v8.6v3.3v43.7c-10.6,1.7-18.9,11-18.9,22.1c0,12.4,10,22.4,22.4,22.4h41.5   c12.5,0,22.4-10,22.4-22.4S82.9,55.4,70.6,55.4z M29.3,12.1H62v22.5H29.3V12.1z M29.3,58.8v-3.4V38H62v37.9H29.3V58.8z M70.6,97   H29.1C18.6,97,10,88.6,10,77.9c0-9.4,6.7-17.1,15.5-18.6v20.2h39.7V59h5.2c10.5,0,19.1,8.5,19.1,19.1C89.5,88.7,81.1,97,70.6,97z"/>
  </g>
</svg>
