<svg xmlns="http://www.w3.org/2000/svg" viewBox="0 0 64 64" enable-background="new 0 0 30 30" width="64" height="64"><g><path d="M39.68 50.987H15.787V7.467H39.68v43.52zm-21.76-2.134h19.627V9.813H17.92v39.04z"/><path d="M15.787 0h2.133v8.747h-2.133z"/><path d="M16.853 22.827h21.76v2.133h-21.76z"/><path d="M45.227 47.787h4.266v4.266h-4.266z"/><path d="M25.6 39.04h4.267v4.267H25.6z"/><path d="M25.6 30.293h4.267v4.267H25.6z"/><path d="M45.227 35.84h-6.614v2.133h6.614c6.613 0 11.946 5.334 11.946 11.947 0 6.613-5.546 11.947-11.946 11.947h-26.24c-6.614 0-11.947-5.334-11.947-11.947 0-6.187 4.693-11.307 10.88-11.947V35.84c-7.253.64-13.013 6.613-13.013 14.08 0 7.68 6.4 14.08 14.08 14.08h26.026c7.68 0 14.08-6.4 14.08-14.08s-6.186-14.08-13.866-14.08z"/></g></svg>