<?xml version="1.0" encoding="UTF-8" standalone="no"?>
<!-- Generator: Adobe Illustrator 18.1.1, SVG Export Plug-In . SVG Version: 6.00 Build 0)  -->

<svg
   xmlns:dc="http://purl.org/dc/elements/1.1/"
   xmlns:cc="http://creativecommons.org/ns#"
   xmlns:rdf="http://www.w3.org/1999/02/22-rdf-syntax-ns#"
   xmlns:svg="http://www.w3.org/2000/svg"
   xmlns="http://www.w3.org/2000/svg"
   xmlns:sodipodi="http://sodipodi.sourceforge.net/DTD/sodipodi-0.dtd"
   xmlns:inkscape="http://www.inkscape.org/namespaces/inkscape"
   version="1.1"
   id="Layer_1"
   x="0px"
   y="0px"
   viewBox="653 354 64 64"
   enable-background="new 653 354 60 60"
   xml:space="preserve"
   inkscape:version="0.91 r13725"
   sodipodi:docname="fixo.svg"
   width="64"
   height="64"><metadata
     id="metadata27"><rdf:RDF><cc:Work
         rdf:about=""><dc:format>image/svg+xml</dc:format><dc:type
           rdf:resource="http://purl.org/dc/dcmitype/StillImage" /><dc:title /></cc:Work></rdf:RDF></metadata><defs
     id="defs25" /><sodipodi:namedview
     pagecolor="#ffffff"
     bordercolor="#666666"
     borderopacity="1"
     objecttolerance="10"
     gridtolerance="10"
     guidetolerance="10"
     inkscape:pageopacity="0"
     inkscape:pageshadow="2"
     inkscape:window-width="2560"
     inkscape:window-height="1352"
     id="namedview23"
     showgrid="false"
     inkscape:zoom="3.9333333"
     inkscape:cx="-33.559322"
     inkscape:cy="30"
     inkscape:window-x="0"
     inkscape:window-y="800"
     inkscape:window-maximized="1"
     inkscape:current-layer="Layer_1" /><g
     id="g3"
     transform="matrix(1.0666667,0,0,1.0666667,-43.533356,-23.600013)"
     style="fill:#000000"><circle
       cx="698.5"
       cy="400.5"
       r="2.0999999"
       id="circle5"
       style="fill:#000000" /><circle
       cx="684"
       cy="391.20001"
       r="2.0999999"
       id="circle7"
       style="fill:#000000" /><circle
       cx="676.79999"
       cy="391.20001"
       r="2.0999999"
       id="circle9"
       style="fill:#000000" /><circle
       cx="684"
       cy="384"
       r="2.0999999"
       id="circle11"
       style="fill:#000000" /><circle
       cx="676.79999"
       cy="384"
       r="2.0999999"
       id="circle13"
       style="fill:#000000" /><path
       d="m 692.3,401.6 -23.8,0 0,-42.4 23.8,0 0,42.4 z m -21.7,-2.1 19.6,0 0,-38.3 -19.6,0 0,38.3 z"
       id="path15"
       inkscape:connector-curvature="0"
       style="fill:#000000" /><path
       d="m 695.4,414 -24.8,0 c -7.4,0 -13.4,-6 -13.4,-13.4 0,-7.4 6,-13.4 13.4,-13.4 l 0,2.1 c -6.3,0 -11.4,5.1 -11.4,11.4 0,6.3 5.1,11.4 11.4,11.4 l 24.8,0 c 6.3,0 11.4,-5.1 11.4,-11.4 0,-6.3 -5.1,-11.4 -11.4,-11.4 l -4.1,0 0,-2.1 4.1,0 c 7.4,0 13.4,6 13.4,13.4 0,7.4 -5.9,13.4 -13.4,13.4 z"
       id="path17"
       inkscape:connector-curvature="0"
       style="fill:#000000" /><rect
       x="668.5"
       y="354"
       width="2.0999999"
       height="7.1999998"
       id="rect19"
       style="fill:#000000" /><rect
       x="669.59998"
       y="374.70001"
       width="21.700001"
       height="2.0999999"
       id="rect21"
       style="fill:#000000" /></g></svg>