<svg xmlns="http://www.w3.org/2000/svg" viewBox="653 354 64 64" enable-background="new 653 354 60 60" width="64" height="64"><g transform="matrix(1.067 0 0 1.067 -43.533 -23.6)"><circle cx="698.5" cy="400.5" r="2.1"/><circle cx="684" cy="391.2" r="2.1"/><circle cx="676.8" cy="391.2" r="2.1"/><circle cx="684" cy="384" r="2.1"/><circle cx="676.8" cy="384" r="2.1"/><path d="M692.3 401.6h-23.8v-42.4h23.8v42.4zm-21.7-2.1h19.6v-38.3h-19.6v38.3z"/><path d="M695.4 414h-24.8c-7.4 0-13.4-6-13.4-13.4s6-13.4 13.4-13.4v2.1c-6.3 0-11.4 5.1-11.4 11.4 0 6.3 5.1 11.4 11.4 11.4h24.8c6.3 0 11.4-5.1 11.4-11.4 0-6.3-5.1-11.4-11.4-11.4h-4.1v-2.1h4.1c7.4 0 13.4 6 13.4 13.4s-5.9 13.4-13.4 13.4z"/><path d="M668.5 354h2.1v7.2h-2.1z"/><path d="M669.6 374.7h21.7v2.1h-21.7z"/></g></svg>