<svg enable-background="new 0 0 100 100" id="fixo-s" version="1.1" viewBox="0 0 100 100" x="0px" xml:space="preserve" xmlns="http://www.w3.org/2000/svg" xmlns:xlink="http://www.w3.org/1999/xlink" y="0px">
   <path
     d="m 24.69995,0 0,56.600098 c -9.6,2.399999 -17,10.999902 -17,21.399902 0,12 10,22 22,22 l 40.6001,0 c 12,0 22,-10 22,-22 0,-12 -9.69995,-22.100098 -21.69995,-22.100098 l -8.6001,0 L 62,11.5 28,11.5 28,0 24.69995,0 Z M 28,15.300049 l 30.6001,0 0,20.300048 -30.6001,0 0,-20.300048 z M 28,39 l 30.6001,0 0,37.300049 -30.6001,0 L 28,39 Z M 40,47.300049 40,54 l 6.69995,0 0,-6.699951 -6.69995,0 z m 22,12 8.6001,0 c 10.3,0 18.59985,8.299853 18.59985,18.599853 0,10.2 -8.59985,18.700196 -18.59985,18.700196 l -40.90015,0 C 19.39995,96.600098 11.1001,88.3 11.1001,78 c 0,-8.6 5.59985,-15.799903 13.59985,-17.899902 l 0,19.5 37.30005,0 0,-20.300049 z m -22,1.5 0,6.699951 6.69995,0 0,-6.699951 -6.69995,0 z m 30.6001,13.800049 0,6.699951 6.69995,0 0,-6.699951 -6.69995,0 z"
     id="rect4" />
</svg>
