<?xml version="1.0" encoding="utf-8"?>
<svg enable-background="new 0 0 100 100" id="fixo-s" version="1.1" viewBox="0 0 100 100" x="0px" xml:space="preserve" xmlns="http://www.w3.org/2000/svg" xmlns:xlink="http://www.w3.org/1999/xlink" y="0px">
  <rect height="6.7" width="6.7" x="70.6" y="74.6"/>
  <rect height="6.7" width="6.7" x="40" y="60.8"/>
  <rect height="6.7" width="6.7" x="40" y="47.3"/>
  <path d="M70.6,55.9H62V11.5H28V0h-3.3v11.7v2v42.9C15.1,59,7.7,67.6,7.7,78c0,12,10,22,22,22h40.6c12,0,22-10,22-22   S82.6,55.9,70.6,55.9z M28,15.3h30.6v20.3H28V15.3z M28,59.3V56V39h30.6v37.3H28V59.3z M70.6,96.6H29.7c-10.3,0-18.6-8.3-18.6-18.6   c0-8.6,5.6-15.8,13.6-17.9v19.5H62V59.3h8.6c10.3,0,18.6,8.3,18.6,18.6C89.2,88.1,80.6,96.6,70.6,96.6z"/>
</svg>
