<?xml version="1.0" encoding="utf-8"?>
<!-- Generator: Adobe Illustrator 18.1.1, SVG Export Plug-In . SVG Version: 6.00 Build 0)  -->
<!DOCTYPE svg PUBLIC "-//W3C//DTD SVG 1.1//EN" "http://www.w3.org/Graphics/SVG/1.1/DTD/svg11.dtd">
<svg version="1.1" id="Layer_1" xmlns="http://www.w3.org/2000/svg" xmlns:xlink="http://www.w3.org/1999/xlink" x="0px" y="0px"
	 viewBox="0 0 30 30" enable-background="new 0 0 30 30" xml:space="preserve">
<g>
	<path fill="#222222" d="M18.5,23.9H7.3V3.5h11.2V23.9z M8.3,22.9h9.2V4.6H8.3V22.9z"/>
	<rect x="7.3" y="0" fill="#222222" width="1" height="4.1"/>
	<rect x="7.8" y="10.7" fill="#222222" width="10.2" height="1"/>
	<rect x="21.1" y="22.4" fill="#222222" width="2" height="2"/>
	<rect x="11.9" y="18.3" fill="#222222" width="2" height="2"/>
	<rect x="11.9" y="14.2" fill="#222222" width="2" height="2"/>
	<path fill="#222222" d="M21.1,16.8H18v1h3.1c3.1,0,5.6,2.5,5.6,5.6S24.1,29,21.1,29H8.8c-3.1,0-5.6-2.5-5.6-5.6
		c0-2.9,2.2-5.3,5.1-5.6v-1c-3.4,0.3-6.1,3.1-6.1,6.6c0,3.6,3,6.6,6.6,6.6h12.2c3.6,0,6.6-3,6.6-6.6S24.7,16.8,21.1,16.8z"/>
</g>
</svg>
