<?xml version="1.0" encoding="utf-8"?>
<svg enable-background="new 0 0 100 100" id="internet-s" version="1.1" viewBox="0 0 100 100" x="0px" xml:space="preserve" xmlns="http://www.w3.org/2000/svg" xmlns:xlink="http://www.w3.org/1999/xlink" y="0px">
  <path d="M51.8,0.5h-2.1C22.3,0.5,0,22.8,0,50.2S22.3,100,49.8,100h2.1c26.5-1.1,47.7-23,47.7-49.6v-2.1H51.8V0.5z M38,6   c-7.9,7.9-13.5,23.6-13.8,42.2h-20C5.1,27.7,19.2,10.9,38,6z M4.3,52.1h20c0.3,18.4,5.7,34.1,13.6,42C19,89.2,5.1,72.4,4.3,52.1z    M47.9,95.6c-10.6-2.2-19.5-21.1-20-43.4h20C47.9,73.9,47.9,95.4,47.9,95.6z M47.9,48.2h-20c0.5-22.3,9.4-41.2,20-43.4   C47.9,4.9,47.9,26.5,47.9,48.2z M95.6,52.1c-1,20.1-14.7,36.9-33.4,42c7.9-7.9,13.5-23.6,13.8-42H95.6z M71.8,52.1   c-0.5,22.3-9.4,41.2-20,43.4V52.1H71.8z"/>
  <rect height="8.1" width="8.1" x="57.7" y="0"/>
  <rect height="8.1" width="8.1" x="73.5" y="6.5"/>
  <rect height="8.1" width="8.1" x="85.7" y="18.4"/>
  <rect height="8.1" width="8.1" x="91.9" y="34.2"/>
</svg>
