<?xml version="1.0" encoding="UTF-8" standalone="no"?>
<!-- Generator: Adobe Illustrator 18.1.1, SVG Export Plug-In . SVG Version: 6.00 Build 0)  -->

<svg
   xmlns:dc="http://purl.org/dc/elements/1.1/"
   xmlns:cc="http://creativecommons.org/ns#"
   xmlns:rdf="http://www.w3.org/1999/02/22-rdf-syntax-ns#"
   xmlns:svg="http://www.w3.org/2000/svg"
   xmlns="http://www.w3.org/2000/svg"
   xmlns:sodipodi="http://sodipodi.sourceforge.net/DTD/sodipodi-0.dtd"
   xmlns:inkscape="http://www.inkscape.org/namespaces/inkscape"
   version="1.1"
   id="Layer_1"
   x="0px"
   y="0px"
   viewBox="653 354 64 64"
   enable-background="new 653 354 60 60"
   xml:space="preserve"
   inkscape:version="0.91 r13725"
   sodipodi:docname="internet.svg"
   width="64"
   height="64"><metadata
     id="metadata25"><rdf:RDF><cc:Work
         rdf:about=""><dc:format>image/svg+xml</dc:format><dc:type
           rdf:resource="http://purl.org/dc/dcmitype/StillImage" /><dc:title /></cc:Work></rdf:RDF></metadata><defs
     id="defs23" /><sodipodi:namedview
     pagecolor="#ffffff"
     bordercolor="#666666"
     borderopacity="1"
     objecttolerance="10"
     gridtolerance="10"
     guidetolerance="10"
     inkscape:pageopacity="0"
     inkscape:pageshadow="2"
     inkscape:window-width="2560"
     inkscape:window-height="1352"
     id="namedview21"
     showgrid="false"
     inkscape:zoom="3.9333333"
     inkscape:cx="-33.559322"
     inkscape:cy="30"
     inkscape:window-x="0"
     inkscape:window-y="800"
     inkscape:window-maximized="1"
     inkscape:current-layer="Layer_1" /><g
     id="g3"
     transform="matrix(1.0702339,0,0,1.0702339,-45.916229,-24.862788)"
     style="fill:#000000"><path
       d="m 683.8,413.8 -1.2,0 c -16.4,0 -29.6,-13.3 -29.6,-29.6 0,-16.3 13.3,-29.6 29.6,-29.6 l 1.2,0 0,59.2 z M 681.4,357 c -14.5,0.6 -26.1,12.6 -26.1,27.3 0,14.7 11.6,26.7 26.1,27.3 l 0,-54.6 z"
       id="path5"
       inkscape:connector-curvature="0"
       style="fill:#000000" /><path
       d="m 682.6,413.8 c -8.7,0 -15.4,-13 -15.4,-29.6 0,-16.6 6.8,-29.6 15.4,-29.6 l 0,2.4 c -7.1,0 -13,12.4 -13,27.3 0,14.9 5.9,27.3 13,27.3 7.1,0 13,-12.6 13,-27.3 l 2.4,0 c 0,16.5 -6.7,29.5 -15.4,29.5 z"
       id="path7"
       inkscape:connector-curvature="0"
       style="fill:#000000" /><path
       d="m 682.6,413.8 0,-2.4 c 14.6,0 26.7,-11.6 27.3,-26.1 l -55.7,0 0,-2.3 58.1,0 0,1.2 c -0.1,16.4 -13.3,29.6 -29.7,29.6 z"
       id="path9"
       inkscape:connector-curvature="0"
       style="fill:#000000" /><circle
       cx="711.09998"
       cy="377.70001"
       r="1.8"
       id="circle11"
       style="fill:#000000" /><circle
       cx="708.09998"
       cy="370.60001"
       r="1.8"
       id="circle13"
       style="fill:#000000" /><circle
       cx="703.40002"
       cy="364.10001"
       r="1.8"
       id="circle15"
       style="fill:#000000" /><circle
       cx="696.79999"
       cy="359.29999"
       r="1.8"
       id="circle17"
       style="fill:#000000" /><circle
       cx="689.09998"
       cy="355.79999"
       r="1.8"
       id="circle19"
       style="fill:#000000" /></g></svg>