<?xml version="1.0" encoding="UTF-8" standalone="no"?>
<!-- Generator: Adobe Illustrator 18.1.1, SVG Export Plug-In . SVG Version: 6.00 Build 0)  -->

<svg
   xmlns:dc="http://purl.org/dc/elements/1.1/"
   xmlns:cc="http://creativecommons.org/ns#"
   xmlns:rdf="http://www.w3.org/1999/02/22-rdf-syntax-ns#"
   xmlns:svg="http://www.w3.org/2000/svg"
   xmlns="http://www.w3.org/2000/svg"
   xmlns:sodipodi="http://sodipodi.sourceforge.net/DTD/sodipodi-0.dtd"
   xmlns:inkscape="http://www.inkscape.org/namespaces/inkscape"
   version="1.1"
   id="Layer_1"
   x="0px"
   y="0px"
   viewBox="0 0 64 64"
   enable-background="new 0 0 30 30"
   xml:space="preserve"
   inkscape:version="0.91 r13725"
   sodipodi:docname="internet-s.svg"
   width="64"
   height="64"><metadata
     id="metadata25"><rdf:RDF><cc:Work
         rdf:about=""><dc:format>image/svg+xml</dc:format><dc:type
           rdf:resource="http://purl.org/dc/dcmitype/StillImage" /><dc:title /></cc:Work></rdf:RDF></metadata><defs
     id="defs23" /><sodipodi:namedview
     pagecolor="#ffffff"
     bordercolor="#666666"
     borderopacity="1"
     objecttolerance="10"
     gridtolerance="10"
     guidetolerance="10"
     inkscape:pageopacity="0"
     inkscape:pageshadow="2"
     inkscape:window-width="2560"
     inkscape:window-height="1352"
     id="namedview21"
     showgrid="false"
     inkscape:zoom="7.8666667"
     inkscape:cx="-16.779661"
     inkscape:cy="15"
     inkscape:window-x="0"
     inkscape:window-y="800"
     inkscape:window-maximized="1"
     inkscape:current-layer="Layer_1" /><g
     id="g3"
     transform="scale(2.1333333,2.1333333)"
     style="fill:#000000"><g
       id="g5"
       style="fill:#000000"><path
         d="m 15.3,30 -0.6,0 C 6.6,30 0,23.4 0,15.3 0,7.2 6.6,0.6 14.7,0.6 l 0.6,0 0,29.4 z M 14.1,1.8 C 6.9,2.1 1.2,8 1.2,15.3 c 0,7.3 5.7,13.2 12.9,13.5 l 0,-27 z"
         id="path7"
         inkscape:connector-curvature="0"
         style="fill:#000000" /><path
         d="M 14.7,30 C 10.4,30 7.1,23.5 7.1,15.3 7.1,7.1 10.5,0.6 14.7,0.6 l 0,1.2 c -3.5,0 -6.5,6.2 -6.5,13.5 0,7.3 3,13.5 6.5,13.5 3.5,0 6.5,-6.2 6.5,-13.5 l 1.2,0 C 22.4,23.5 19,30 14.7,30 Z"
         id="path9"
         inkscape:connector-curvature="0"
         style="fill:#000000" /><path
         d="m 14.7,30 0,-1.2 c 7.3,0 13.2,-5.7 13.5,-12.9 l -27.6,0 0,-1.2 28.8,0 0,0.6 C 29.4,23.4 22.8,30 14.7,30 Z"
         id="path11"
         inkscape:connector-curvature="0"
         style="fill:#000000" /></g><rect
       x="17"
       y="0"
       width="2.4000001"
       height="2.4000001"
       id="rect13"
       style="fill:#000000" /><rect
       x="21.700001"
       y="2.4000001"
       width="2.4000001"
       height="2.4000001"
       id="rect15"
       style="fill:#000000" /><rect
       x="25.299999"
       y="5.9000001"
       width="2.4000001"
       height="2.4000001"
       id="rect17"
       style="fill:#000000" /><rect
       x="27.6"
       y="10.6"
       width="2.4000001"
       height="2.4000001"
       id="rect19"
       style="fill:#000000" /></g></svg>