<?xml version="1.0" encoding="utf-8"?>
<!-- Generator: Adobe Illustrator 18.1.1, SVG Export Plug-In . SVG Version: 6.00 Build 0)  -->
<!DOCTYPE svg PUBLIC "-//W3C//DTD SVG 1.1//EN" "http://www.w3.org/Graphics/SVG/1.1/DTD/svg11.dtd">
<svg version="1.1" id="Layer_1" xmlns="http://www.w3.org/2000/svg" xmlns:xlink="http://www.w3.org/1999/xlink" x="0px" y="0px"
	 viewBox="653 354 60 60" enable-background="new 653 354 60 60" xml:space="preserve">
<g>
	<path fill="#222222" d="M683.8,413.8h-1.2c-16.4,0-29.6-13.3-29.6-29.6s13.3-29.6,29.6-29.6h1.2V413.8z M681.4,357
		c-14.5,0.6-26.1,12.6-26.1,27.3s11.6,26.7,26.1,27.3V357z"/>
	<path fill="#222222" d="M682.6,413.8c-8.7,0-15.4-13-15.4-29.6s6.8-29.6,15.4-29.6v2.4c-7.1,0-13,12.4-13,27.3s5.9,27.3,13,27.3
		c7.1,0,13-12.6,13-27.3h2.4C698,400.8,691.3,413.8,682.6,413.8z"/>
	<path fill="#222222" d="M682.6,413.8v-2.4c14.6,0,26.7-11.6,27.3-26.1h-55.7V383h58.1v1.2C712.2,400.6,699,413.8,682.6,413.8z"/>
	<circle fill="#222222" cx="711.1" cy="377.7" r="1.8"/>
	<circle fill="#222222" cx="708.1" cy="370.6" r="1.8"/>
	<circle fill="#222222" cx="703.4" cy="364.1" r="1.8"/>
	<circle fill="#222222" cx="696.8" cy="359.3" r="1.8"/>
	<circle fill="#222222" cx="689.1" cy="355.8" r="1.8"/>
</g>
</svg>
