<svg enable-background="new 0 0 100 100" id="icon-internet" version="1.1" viewBox="0 0 100 100" x="0px" xml:space="preserve" xmlns="http://www.w3.org/2000/svg" xmlns:xlink="http://www.w3.org/1999/xlink" y="0px">
  <g>
    <path d="M51.5,1h-2C22.3,1,0,23.2,0,50.5s22,49.5,49.5,49.5h2C78,98.8,98.9,77.3,99.1,50.6v-2.2H51.5V1z M37.4,6.6   c-8,8-13.3,23.4-13.7,41.8H3.9C4.8,28.5,18.9,11.8,37.4,6.6z M3.9,52.3h19.8c0.3,18.9,5.9,34.6,14,42.4   C18.9,89.8,4.7,72.8,3.9,52.3z M47.4,96C36.8,93.8,28.1,75,27.8,52.3h19.7V96z M47.4,48.4H27.8c0.5-22.5,9-41,19.7-43.2V48.4z    M94.9,52.3c-0.6,20-14.5,36.7-33.2,42c8-8,13.1-23.6,13.4-42H94.9z M71.1,52.3c-0.5,21.8-8.6,40.4-18.7,43.5c-0.3,0-0.6,0-0.9,0   V52.3H71.1z"/>
  </g>
  <g>
    <g>
      <circle cx="97" cy="39.7" r="3"/>
    </g>
    <g>
      <circle cx="92" cy="27.8" r="3"/>
    </g>
    <g>
      <circle cx="84.2" cy="16.9" r="3"/>
    </g>
    <g>
      <circle cx="73.2" cy="9" r="3"/>
    </g>
    <g>
      <circle cx="60.4" cy="3" r="3"/>
    </g>
  </g>
</svg>
