<svg xmlns="http://www.w3.org/2000/svg" viewBox="0 0 64 64" enable-background="new 0 0 30 30" width="64" height="64"><g><g><path d="M32.64 64h-1.28C14.08 64 0 49.92 0 32.64S14.08 1.28 31.36 1.28h1.28V64zM30.08 3.84c-15.36.64-27.52 13.227-27.52 28.8s12.16 28.16 27.52 28.8V3.84z"/><path d="M31.36 64c-9.173 0-16.213-13.867-16.213-31.36S22.4 1.28 31.36 1.28v2.56c-7.467 0-13.867 13.227-13.867 28.8s6.4 28.8 13.867 28.8c7.467 0 13.867-13.227 13.867-28.8h2.56C47.787 50.133 40.533 64 31.36 64z"/><path d="M31.36 64v-2.56c15.573 0 28.16-12.16 28.8-27.52H1.28v-2.56h61.44v1.28C62.72 49.92 48.64 64 31.36 64z"/></g><path d="M36.267 0h5.12v5.12h-5.12z"/><path d="M46.293 5.12h5.12v5.12h-5.12z"/><path d="M53.973 12.587h5.12v5.12h-5.12z"/><path d="M58.88 22.613H64v5.12h-5.12z"/></g></svg>