<svg class="icon-call" enable-background="new 0 0 100 100" version="1.1" viewBox="0 0 100 100" x="0px" xml:space="preserve" xmlns="http://www.w3.org/2000/svg" xmlns:xlink="http://www.w3.org/1999/xlink" y="0px">
  <path d="M96.9,71.3c-5.3-2.3-11-4.3-17-5.7c-4.3-0.9-8.3-1.7-12.7-2l-2.6-0.3l-5.3,11.6c-14.5-7.3-26.3-19.3-33.8-33.5l11.3-6  l-0.3-2.6c-0.3-4.3-0.9-8.7-2-13C33.5,14.7,31.8,9,29.5,3.4l-1.4-2.9l-3.2,0.6C9.9,4.3,0,17,0,31.7c0,2,0.3,4,0.3,5.7  c0.3,2.3,0.9,4.3,2,6.3l2,4.3C9.3,58.4,15.9,67.7,24,75.6c8.3,8.3,17.6,15,28.3,19.9l3.2,1.4c2,0.9,4.3,1.7,6.3,2  c2,0.3,4.3,0.6,6.3,0.6c14.5,0,27.2-9.9,31.2-23.5l0.6-3.2L96.9,71.3z M68,95.2c-1.7,0-3.7-0.3-5.3-0.6c-1.7-0.3-3.2-0.9-4.9-1.7  l-2-0.3C45.1,87.6,35.5,81,27.2,72.6c-8.3-8.3-15-17.9-19.6-28.6L7,42.3c-0.6-1.7-1.4-3.7-1.7-5.3c-0.3-2-0.6-3.7-0.6-5.3  C4.6,19.6,13,9,25.2,5.9c2,4.6,3.2,9.3,4.6,15.3c0.9,3.7,1.4,7.6,1.7,11.3l-12.7,6.6l0.9,2C28.1,58.1,42,72,58.9,79.9l2,1.4l6-13  c4,0.3,8,0.6,11.9,1.7c4.9,1.4,10.4,2.9,15.3,4.9C90.9,86.9,80.4,95.2,68,95.2z"/>
</svg>
