<svg xmlns="http://www.w3.org/2000/svg" viewBox="0 0 64 64" enable-background="new 0 0 30 30" width="64" height="64"><path d="M43.705 64c-1.29 0-2.792-.215-4.08-.43-1.29-.214-2.793-.644-4.08-1.288l-2.15-.86c-6.872-3.22-12.885-7.516-18.254-12.885C9.988 43.383 5.69 37.37 2.47 30.71l-1.29-2.79C.538 26.63.108 25.34-.106 23.84c0-1.075-.215-2.363-.215-3.652 0-9.45 6.443-17.61 16.107-19.758L17.933 0l.86 1.933c1.502 3.65 2.576 7.302 3.22 10.523.645 2.792 1.074 5.584 1.29 8.376l.214 1.718-7.302 3.866c4.94 9.235 12.456 16.967 21.906 21.69l3.437-7.515 1.718.215c2.792.215 5.37.645 8.16 1.29 3.867.858 7.518 2.147 10.954 3.65l1.932.86-.43 2.147C61.316 57.557 53.155 64 43.706 64zm-6.658-4.295c1.074.43 2.148.86 3.22 1.074 1.075.213 2.364.428 3.438.428 7.946 0 14.818-5.37 16.966-13.1-3.22-1.29-6.657-2.363-9.878-3.222-2.577-.644-5.154-.86-7.732-1.074l-3.865 8.376-1.29-.86c-10.952-5.154-19.972-14.174-25.34-25.127l-.646-1.287 8.16-4.296c-.214-2.362-.43-4.94-1.073-7.302-.86-3.865-1.718-6.872-3.007-9.88C8.054 5.37 2.685 12.243 2.685 20.19c0 1.074.214 2.148.43 3.436.214 1.074.643 2.363 1.073 3.436l.43 1.074c3.006 6.873 7.3 13.1 12.67 18.47 5.37 5.37 11.598 9.664 18.47 12.886l1.29.215z"/></svg>