<svg version="1.1" class="icon-lupa-thin" xmlns="http://www.w3.org/2000/svg" xmlns:xlink="http://www.w3.org/1999/xlink" x="0px" y="0px"
	 viewBox="0 0 612 792" enable-background="new 0 0 612 792" xml:space="preserve">
	<g>
		<path fill="#000000" d="M593,614.4l-93.9-93.9c-4.2-4.2-9.5-7.4-13.7-9.5c30.6-43.3,48.5-95,48.5-151.9
			c0-145.6-118.2-263.8-263.8-263.8S6.3,213.5,6.3,359.1s118.2,263.8,263.8,263.8c57,0,108.7-17.9,151.9-48.5
			c2.1,5.3,5.3,9.5,9.5,13.7l93.9,93.9c19,19,49.6,19,67.5,0C610.9,664,610.9,633.4,593,614.4z M269.1,580.7
			c-122.4,0-221.6-99.2-221.6-221.6s99.2-221.6,221.6-221.6s221.6,99.2,221.6,221.6S391.5,580.7,269.1,580.7z"/>
	</g>
</svg>
