<svg class="icon-pin" enable-background="new 0 0 100 100" version="1.1" viewBox="0 0 100 100" x="0px" xml:space="preserve" xmlns="http://www.w3.org/2000/svg" xmlns:xlink="http://www.w3.org/1999/xlink" y="0px">
  <path d="M49.8,0C30.2,0,14.2,15.9,14.2,35.6c0,28.3,32.7,61.4,34.1,62.7L50,100l1.7-1.7c1.4-1.4,34.1-37,34.1-62.7   C85.5,15.9,69.5,0,49.8,0z M49.8,94.1c-6.7-7-31.4-35-31.4-58.3c0-17.3,14.1-31.4,31.4-31.4c17.3,0,31.4,14.1,31.4,31.4   C81.2,56.7,56.2,86.7,49.8,94.1z"/>
  <circle cx="49.8" cy="32.7" r="8.3"/>
</svg>
