<?xml version="1.0" encoding="UTF-8" standalone="no"?>
<!-- Generator: Adobe Illustrator 18.1.1, SVG Export Plug-In . SVG Version: 6.00 Build 0)  -->

<svg
   xmlns:dc="http://purl.org/dc/elements/1.1/"
   xmlns:cc="http://creativecommons.org/ns#"
   xmlns:rdf="http://www.w3.org/1999/02/22-rdf-syntax-ns#"
   xmlns:svg="http://www.w3.org/2000/svg"
   xmlns="http://www.w3.org/2000/svg"
   xmlns:sodipodi="http://sodipodi.sourceforge.net/DTD/sodipodi-0.dtd"
   xmlns:inkscape="http://www.inkscape.org/namespaces/inkscape"
   version="1.1"
   id="Layer_1"
   x="0px"
   y="0px"
   viewBox="0 0 64 64"
   enable-background="new 0 0 30 30"
   xml:space="preserve"
   inkscape:version="0.91 r13725"
   sodipodi:docname="pin-s.svg"
   width="64"
   height="64"><metadata
     id="metadata13"><rdf:RDF><cc:Work
         rdf:about=""><dc:format>image/svg+xml</dc:format><dc:type
           rdf:resource="http://purl.org/dc/dcmitype/StillImage" /><dc:title></dc:title></cc:Work></rdf:RDF></metadata><defs
     id="defs11" /><sodipodi:namedview
     pagecolor="#ffffff"
     bordercolor="#666666"
     borderopacity="1"
     objecttolerance="10"
     gridtolerance="10"
     guidetolerance="10"
     inkscape:pageopacity="0"
     inkscape:pageshadow="2"
     inkscape:window-width="2560"
     inkscape:window-height="1352"
     id="namedview9"
     showgrid="false"
     inkscape:zoom="7.8666667"
     inkscape:cx="-0.88983051"
     inkscape:cy="15"
     inkscape:window-x="0"
     inkscape:window-y="800"
     inkscape:window-maximized="1"
     inkscape:current-layer="Layer_1" /><g
     id="g3"
     style="fill:#000000"
     transform="scale(2.1333333,2.1333333)"><path
       d="M 15,30 14.5,29.5 C 14.1,29.1 4.3,19.2 4.3,10.7 4.3,4.8 9.1,0 15,0 c 5.9,0 10.7,4.8 10.7,10.7 0,7.7 -9.8,18.4 -10.2,18.8 L 15,30 Z M 15,1.3 c -5.2,0 -9.4,4.2 -9.4,9.4 0,7 7.4,15.4 9.4,17.5 C 16.9,26 24.4,17 24.4,10.7 24.4,5.5 20.2,1.3 15,1.3 Z"
       id="path5"
       style="fill:#000000"
       inkscape:connector-curvature="0" /><circle
       cx="15"
       cy="9.8000002"
       r="2.5"
       id="circle7"
       style="fill:#000000" /></g></svg>