<?xml version="1.0" encoding="utf-8"?>
<!-- Generator: Adobe Illustrator 18.1.1, SVG Export Plug-In . SVG Version: 6.00 Build 0)  -->
<!DOCTYPE svg PUBLIC "-//W3C//DTD SVG 1.1//EN" "http://www.w3.org/Graphics/SVG/1.1/DTD/svg11.dtd">
<svg version="1.1" id="Layer_1" xmlns="http://www.w3.org/2000/svg" xmlns:xlink="http://www.w3.org/1999/xlink" x="0px" y="0px"
	 viewBox="0 0 30 30" enable-background="new 0 0 30 30" xml:space="preserve">
<g>
	<path fill="#222222" d="M23,30L6.9,30C3.1,29.9,0,26.8,0,23V11.2c0-3.8,3.1-7,7-7H23c3.8,0,7,3.1,7,7V23C30,26.9,26.9,30,23,30z
		 M7,28.9h16c3.3,0,5.9-2.6,5.9-5.9V11.2c0-3.3-2.6-5.9-5.9-5.9H7c-3.3,0-5.9,2.6-5.9,5.9V23C1.1,26.3,3.7,28.9,7,28.9z"/>
	<rect x="0.5" y="22.5" fill="#222222" width="29" height="1.1"/>
	<g>
		
			<rect x="16.1" y="-0.4" transform="matrix(0.7071 0.7071 -0.7071 0.7071 6.7324 -10.971)" fill="#222222" width="1.1" height="6.1"/>
		
			<rect x="10.4" y="2.1" transform="matrix(0.7071 0.7071 -0.7071 0.7071 5.7897 -8.695)" fill="#222222" width="6.1" height="1.1"/>
	</g>
	<rect x="20.9" y="25.2" fill="#222222" width="2.1" height="2.1"/>
</g>
</svg>
