<?xml version="1.0" encoding="utf-8"?>
<svg enable-background="new 0 0 100 100" id="tv-s" version="1.1" viewBox="0 0 100 100" x="0px" xml:space="preserve" xmlns="http://www.w3.org/2000/svg" xmlns:xlink="http://www.w3.org/1999/xlink" y="0px">
  <path d="M77,13.8H53.2l11-11l-2.7-2.7L50.2,11.4L39,0.2l-2.7,2.7l11,11H23.3C10.3,13.8,0,24.4,0,37.1v39.4c0,12.7,10.3,23,23,23.3   h53.7c13,0,23.3-10.3,23.3-23.3V37.1C100.3,24.1,89.7,13.8,77,13.8z M23.5,17.5h53.4c11,0,19.7,8.6,19.7,19.7V75H3.8V37.2   C3.8,26.1,12.5,17.5,23.5,17.5z M77,96.2H23.6C13.3,96.2,5,88.6,4.1,78.6h92.6C95.6,88.6,87.3,96.2,77,96.2z"/>
  <rect height="7" width="7" x="69.9" y="83.9"/>
</svg>
