<?xml version="1.0" encoding="UTF-8" standalone="no"?>
<!-- Generator: Adobe Illustrator 18.1.1, SVG Export Plug-In . SVG Version: 6.00 Build 0)  -->

<svg
   xmlns:dc="http://purl.org/dc/elements/1.1/"
   xmlns:cc="http://creativecommons.org/ns#"
   xmlns:rdf="http://www.w3.org/1999/02/22-rdf-syntax-ns#"
   xmlns:svg="http://www.w3.org/2000/svg"
   xmlns="http://www.w3.org/2000/svg"
   xmlns:sodipodi="http://sodipodi.sourceforge.net/DTD/sodipodi-0.dtd"
   xmlns:inkscape="http://www.inkscape.org/namespaces/inkscape"
   version="1.1"
   id="Layer_1"
   x="0px"
   y="0px"
   viewBox="0 0 64 64"
   enable-background="new 0 0 30 30"
   xml:space="preserve"
   inkscape:version="0.91 r13725"
   sodipodi:docname="tv-s.svg"
   width="64"
   height="64"><metadata
     id="metadata21"><rdf:RDF><cc:Work
         rdf:about=""><dc:format>image/svg+xml</dc:format><dc:type
           rdf:resource="http://purl.org/dc/dcmitype/StillImage" /><dc:title /></cc:Work></rdf:RDF></metadata><defs
     id="defs19" /><sodipodi:namedview
     pagecolor="#ffffff"
     bordercolor="#666666"
     borderopacity="1"
     objecttolerance="10"
     gridtolerance="10"
     guidetolerance="10"
     inkscape:pageopacity="0"
     inkscape:pageshadow="2"
     inkscape:window-width="2560"
     inkscape:window-height="1352"
     id="namedview17"
     showgrid="false"
     inkscape:zoom="7.8666667"
     inkscape:cx="-16.779661"
     inkscape:cy="15"
     inkscape:window-x="0"
     inkscape:window-y="800"
     inkscape:window-maximized="1"
     inkscape:current-layer="Layer_1" /><g
     id="g3"
     transform="matrix(2.1333333,0,0,2.1333333,5e-7,-0.13916778)"
     style="fill:#000000"><path
       d="M 23,30 6.9,30 C 3.1,29.9 0,26.8 0,23 L 0,11.2 c 0,-3.8 3.1,-7 7,-7 l 16,0 c 3.8,0 7,3.1 7,7 L 30,23 c 0,3.9 -3.1,7 -7,7 z m -16,-1.1 16,0 c 3.3,0 5.9,-2.6 5.9,-5.9 l 0,-11.8 C 28.9,7.9 26.3,5.3 23,5.3 l -16,0 c -3.3,0 -5.9,2.6 -5.9,5.9 l 0,11.8 c 0,3.3 2.6,5.9 5.9,5.9 z"
       id="path5"
       inkscape:connector-curvature="0"
       style="fill:#000000" /><rect
       x="0.5"
       y="22.5"
       width="29"
       height="1.1"
       id="rect7"
       style="fill:#000000" /><g
       id="g9"
       style="fill:#000000"><rect
         x="16.1"
         y="-0.40000001"
         transform="matrix(0.7071,0.7071,-0.7071,0.7071,6.7324,-10.971)"
         width="1.1"
         height="6.0999999"
         id="rect11"
         style="fill:#000000" /><rect
         x="10.4"
         y="2.0999999"
         transform="matrix(0.7071,0.7071,-0.7071,0.7071,5.7897,-8.695)"
         width="6.0999999"
         height="1.1"
         id="rect13"
         style="fill:#000000" /></g><rect
       x="20.9"
       y="25.200001"
       width="2.0999999"
       height="2.0999999"
       id="rect15"
       style="fill:#000000" /></g></svg>