<?xml version="1.0" encoding="utf-8"?>
<!-- Generator: Adobe Illustrator 18.1.1, SVG Export Plug-In . SVG Version: 6.00 Build 0)  -->
<svg version="1.1" id="tv" xmlns="http://www.w3.org/2000/svg" xmlns:xlink="http://www.w3.org/1999/xlink" x="0px" y="0px"
	 viewBox="-400 -385.6 500 484" enable-background="new -400 -385.6 500 484" xml:space="preserve">
<path d="M-16-331.1h-114l42-42l-12.5-12.5l-47.5,47.5l-47.5-47.5l-12.5,12.5l43,43h-119c-63.5-0.5-116,51-116,116v196.5
	c0,63,50.5,115.5,115.5,116H-16c64,0,116-51.5,116-116v-197.5C100-279.6,48.5-331.1-16-331.1z M-292.5,78.4c-40.5-4-75-33-86-71h86
	V78.4z M-212,78.4h-62.5v-72h62.5V78.4z M-15.5,78.4H-195v-72H79.5C68,48.9,30,78.4-15.5,78.4z M83.5-20.1c0,4,0,8.5-1,12.5v-3h-463
	c0-3-1-6-1-9.5v-196.5c0-55.5,44.5-98.5,98.5-98.5h268.5c55.5,0,98.5,44.5,98.5,98.5v196.5H83.5z"/>
<circle display="none" cx="75.2" cy="87.4" r="2.7"/>
</svg>
