<svg xmlns="http://www.w3.org/2000/svg" viewBox="30 354 64 64" enable-background="new 30 354 60 60" width="64" height="64"><g transform="matrix(1.07 0 0 1.07 -2.214 -25.022)"><path d="M76 413H43.9c-7.7-.1-13.8-6.3-13.8-13.9v-23.5c0-7.7 6.2-13.9 13.9-13.9h32c7.7 0 13.9 6.2 13.9 13.9v23.5c0 7.7-6.2 13.9-13.9 13.9zm-31.9-2.2h32c6.5 0 11.8-5.2 11.8-11.8v-23.5c0-6.5-5.2-11.8-11.8-11.8H44c-6.5 0-11.8 5.2-11.8 11.8V399c0 6.6 5.4 11.8 11.9 11.8z"/><path d="M32.2 400.1h55.6v2.1H32.2z"/><circle cx="75" cy="406.6" r="1.6"/><path d="M52.5 401.2h2.1v10.7h-2.1z"/><path d="M42.9 401.2H45v10.7h-2.1z"/><g><path d="M61.02 363.064l-1.484-1.485 6.435-6.436 1.486 1.485z"/><path d="M59.532 363.018l-6.435-6.435 1.485-1.485 6.435 6.435z"/></g></g></svg>