<?xml version="1.0" encoding="utf-8"?>
<!-- Generator: Adobe Illustrator 18.1.1, SVG Export Plug-In . SVG Version: 6.00 Build 0)  -->
<!DOCTYPE svg PUBLIC "-//W3C//DTD SVG 1.1//EN" "http://www.w3.org/Graphics/SVG/1.1/DTD/svg11.dtd">
<svg version="1.1" id="Layer_1" xmlns="http://www.w3.org/2000/svg" xmlns:xlink="http://www.w3.org/1999/xlink" x="0px" y="0px"
	 viewBox="0 0 30 30" enable-background="new 0 0 30 30" xml:space="preserve">
<path fill="#00A696" d="M19,17.4c3-1.5,5.1-4.6,5.1-8.2C24.2,4.1,20,0,15,0S5.8,4.1,5.8,9.2c0,3.6,2.1,6.7,5.1,8.2
	c-5.9,1.3-9.9,5.9-9.9,12V30h27.9v-0.7C28.9,23.3,24.9,18.7,19,17.4z M7.2,9.2c0-4.3,3.5-7.8,7.8-7.8s7.8,3.5,7.8,7.8S19.3,17,15,17
	S7.2,13.5,7.2,9.2z M2.4,28.7c0.3-6,5.3-10.4,12.1-10.4h1.1c6.8,0,11.7,4.3,12.1,10.4H2.4z"/>
</svg>
