<?xml version="1.0" encoding="utf-8"?>
<!-- Generator: Adobe Illustrator 18.1.1, SVG Export Plug-In . SVG Version: 6.00 Build 0)  -->
<!DOCTYPE svg PUBLIC "-//W3C//DTD SVG 1.1//EN" "http://www.w3.org/Graphics/SVG/1.1/DTD/svg11.dtd">
<svg version="1.1" id="Layer_1" xmlns="http://www.w3.org/2000/svg" xmlns:xlink="http://www.w3.org/1999/xlink" x="0px" y="0px"
	 viewBox="0 0 30 30" enable-background="new 0 0 30 30" xml:space="preserve">
<g>
	<path fill="#00A696" d="M2.2,0v30h17.4l8.1-7V0H2.2z M20,28.2v-4.9h5.7L20,28.2z M26.7,22.2h-7.8v6.7H3.3V1.1h23.3V22.2z"/>
	<path fill="#00A696" d="M8.2,10.9h2.1l2.9,4.9h0.9l-2.9-4.9c1.6-0.1,2.6-1.3,2.6-2.8c0-1.6-1.1-2.8-2.9-2.8H7.4v10.5h0.8V10.9z
		 M8.2,6.1H11c1.1,0,2.1,0.7,2.1,2s-0.9,2-2.1,2H8.2V6.1z"/>
	<path fill="#00A696" d="M19.5,15.2c-1.3,0-2.4-0.8-2.5-2.3h-0.8c0.1,1.7,1.2,2.9,2.7,3.1v1.3H20v-1.3c1.8-0.2,2.6-1.4,2.6-2.8
		c0-1.5-0.9-2.4-2.1-2.7l-1.9-0.5c-0.9-0.3-1.5-1-1.5-2c0-1.1,0.7-2,2.1-2c1.2,0,2,0.6,2.3,1.9h0.8c-0.3-1.5-1.1-2.4-2.4-2.6V3.9
		h-1.1v1.3c-1.6,0.2-2.6,1.3-2.6,2.8c0,1.3,0.7,2.4,2,2.8l1.8,0.5c1.1,0.3,1.6,1.1,1.6,1.9C21.8,14.5,20.9,15.2,19.5,15.2z"/>
</g>
</svg>
