<?xml version="1.0" encoding="utf-8"?>
<!-- Generator: Adobe Illustrator 18.1.1, SVG Export Plug-In . SVG Version: 6.00 Build 0)  -->
<svg enable-background="new 0 0 100 100" id="via-s" version="1.1" viewBox="0 0 100 100" x="0px" xml:space="preserve" xmlns="http://www.w3.org/2000/svg" xmlns:xlink="http://www.w3.org/1999/xlink" y="0px">
  <polygon fill="none" points="39.5,57.2 58.5,40.8 39.5,40.8 "/>
  <path d="M57.2,49.1c0-4.4-3.3-6.7-7-6.7h-9.4v13.3h9.4C54.1,55.6,57.2,53.5,57.2,49.1z" fill="none"/>
  <path d="M10.2,2.7v92.7h52V73h25.6V2.7H10.2z M43.3,51.7l-9.7-16.4h-7v16.4h-2.7v-35h11.7c5.9,0,9.7,4.1,9.7,9.4  c0,5-3.3,9.1-8.6,9.4l9.7,16.4h-3.1V51.7z M66,52.4v4.4h-3.6v-4.4c-5-0.6-8.6-4.7-9.1-10.3H56c0.3,5,4.1,7.7,8.3,7.7  c4.7,0,7.7-2.3,7-6.7c0-2.7-1.7-5.3-5.3-6.4L60,34.9c-4.4-1.4-6.7-5-6.7-9.4c0-5,3.3-8.6,8.6-9.4v-4.4h3.6v4.7c4.4,0.6,7,3.6,8,8.6  h-2.7c-0.9-4.4-3.6-6.4-7.7-6.4c-4.7,0-7,3-7,6.7c0,3.3,2,5.6,5,6.7l6.4,1.7c4.1,0.9,7,4.1,7,9.1C74.5,47.7,71.9,51.7,66,52.4z" fill="none"/>
  <path d="M7.5,0v100h58l27-23.3V0H7.5z M66.9,94.1V77.7h19.1L66.9,94.1z M88.9,74.1H63.3v22.3h-52V3.8h77.7V74.1z"/>
  <path d="M27.3,36.4h0.2h7l9.7,16.4h3l-9.7-16.4c5.3-0.3,8.6-4.4,8.6-9.4c0-5.3-3.6-9.4-9.7-9.4H24.7v35h2.7V36.4z M27.5,20.3h9.4   c3.6,0,7,2.3,7,6.7c0,4.4-3,6.7-7,6.7h-9.4V20.3z"/>
  <path d="M65.2,50.6c-4.4,0-8-2.7-8.3-7.7h-2.7c0.3,5.6,4.1,9.7,9.1,10.3v4.4h3.6v-4.4c5.9-0.6,8.6-4.7,8.6-9.4c0-5-3-8-7-9.1   L62,33.1c-3-0.9-5-3.3-5-6.7c0-3.6,2.3-6.7,7-6.7c4.1,0,6.7,2,7.7,6.4h2.7c-0.9-5-3.6-8-8-8.6v-4.7h-3.6v4.4   c-5.3,0.6-8.6,4.4-8.6,9.4c0,4.4,2.3,8,6.7,9.4l5.9,1.7c3.6,0.9,5.3,3.6,5.3,6.4C72.8,48.3,69.8,50.6,65.2,50.6z"/>
</svg>
