<svg xmlns="http://www.w3.org/2000/svg" viewBox="0 0 64 64" enable-background="new 0 0 30 30" width="64" height="64"><g><path d="M4.8 0v64h37.12L59.2 49.067V0H4.8zm37.973 60.16V49.707h12.16L42.773 60.16zm14.294-12.8h-16.64v14.293H7.147V2.347h49.706V47.36z"/><path d="M17.6 23.253h4.48l6.187 10.454h1.92L24 23.253c3.413-.213 5.547-2.773 5.547-5.973 0-3.413-2.347-5.973-6.187-5.973h-7.467v22.4H17.6V23.253zm0-10.24h5.973c2.347 0 4.48 1.494 4.48 4.267 0 2.773-1.92 4.267-4.48 4.267H17.6v-8.534z"/><path d="M41.707 32.427c-2.774 0-5.12-1.707-5.334-4.907h-1.706c.213 3.627 2.56 6.187 5.76 6.613v2.774h2.346v-2.774c3.84-.426 5.547-2.986 5.547-5.973 0-3.2-1.92-5.12-4.48-5.76l-4.053-1.067c-1.92-.64-3.2-2.133-3.2-4.266 0-2.347 1.493-4.267 4.48-4.267 2.56 0 4.266 1.28 4.906 4.053h1.707c-.64-3.2-2.347-5.12-5.12-5.546V8.32h-2.347v2.773c-3.413.427-5.546 2.774-5.546 5.974 0 2.773 1.493 5.12 4.266 5.973l3.84 1.067c2.347.64 3.414 2.346 3.414 4.053.426 2.773-1.494 4.267-4.48 4.267z"/></g></svg>